<?xml version="1.0" encoding="UTF-8" standalone="no"?>
<svg
   xmlns:dc="http://purl.org/dc/elements/1.1/"
   xmlns:cc="http://creativecommons.org/ns#"
   xmlns:rdf="http://www.w3.org/1999/02/22-rdf-syntax-ns#"
   xmlns:svg="http://www.w3.org/2000/svg"
   xmlns="http://www.w3.org/2000/svg"
   xmlns:sodipodi="http://sodipodi.sourceforge.net/DTD/sodipodi-0.dtd"
   xmlns:inkscape="http://www.inkscape.org/namespaces/inkscape"
   width="837.75049"
   height="260.66199"
   viewBox="0 0 837.75049 260.66199"
   version="1.1"
   id="svg6"
   sodipodi:docname="logo.svg"
   style="fill:none"
   inkscape:version="0.92.3 (2405546, 2018-03-11)">
  <metadata
     id="metadata12">
    <rdf:RDF>
      <cc:Work
         rdf:about="">
        <dc:format>image/svg+xml</dc:format>
        <dc:type
           rdf:resource="http://purl.org/dc/dcmitype/StillImage" />
      </cc:Work>
    </rdf:RDF>
  </metadata>
  <defs
     id="defs10" />
  <sodipodi:namedview
     pagecolor="#ffffff"
     bordercolor="#666666"
     borderopacity="1"
     objecttolerance="10"
     gridtolerance="10"
     guidetolerance="10"
     inkscape:pageopacity="0"
     inkscape:pageshadow="2"
     inkscape:window-width="632"
     inkscape:window-height="1047"
     id="namedview8"
     showgrid="false"
     inkscape:zoom="0.3452381"
     inkscape:cx="424.8556"
     inkscape:cy="155.912"
     inkscape:window-x="1282"
     inkscape:window-y="4"
     inkscape:window-maximized="0"
     inkscape:current-layer="svg6" />
  <path
     d="m 15.9375,165.374 c -1.25,0 -3.1875,-0.186 -5.8125,-0.562 -2,-2.124 -3.8125,-5 -5.4375,-8.624 C 3.1875,152.438 2,148.5 1.125,144.375 0.375,140.125 0,135.9376 0,131.8124 c 0.125,-4.25 0.875,-8 2.25,-11.25 0,-0.1248 0.5625,-1.6248 1.6875,-4.5 1.25,-2.8748 2.8125,-6.5 4.6875,-10.8748 1.875,-4.5 4,-9.4376 6.375,-14.8126 2.375,-5.5 4.7501,-10.875 7.1249,-16.125 2.3752,-5.25 4.6252,-10 6.75,-14.25 2.25,-4.375 4.1876,-7.75 5.8126,-10.125 1.125,-1.75 2.125,-3.4374 3,-5.0626 1,-1.6248 1.9374,-3.1248 2.8126,-4.5 1.3748,-2.25 2.6248,-4.3124 3.75,-6.1874 1.25,-2 2.5624,-3.75 3.9374,-5.25 1.5,-1.625 3.125,-3 4.875,-4.125 1.75,-1.25 3.875,-2.3124 6.375,-3.1876 1.5,0.6252 2.8126,1.3126 3.9374,2.0626 1.1252,0.625 2.1252,1.4374 3,2.4374 l 0.5626,2.6252 c 0.25,0.8748 0.625,1.5 1.125,1.8748 0.625,0.25 1.125,0.3752 1.5,0.3752 1.625,0.3748 3,0.8124 4.125,1.3124 1.25,0.375 2.5626,0.625 3.9374,0.75 0.5,0.75 0.9376,1.5 1.3126,2.25 0.5,0.75 1,1.4376 1.5,2.0624 2.5,3.6252 4.5626,7.1252 6.1874,10.5 1.6252,3.3752 1.6252,7.0626 0,11.0626 l 0.1876,2.0626 c 0.625,0.8748 0.9376,1.6874 0.9376,2.4374 0,0.75 -0.1252,1.8126 -0.3752,3.1874 -0.1248,1 -0.25,2.1252 -0.3748,3.3752 0,1.1248 0.1874,2.3748 0.5624,3.75 l 1.3124,1.5 c 2,1 3.9376,1.5 5.8126,1.5 2.5,0 4.75,-0.5626 6.75,-1.6876 2,-1.125 3.875,-2.25 5.625,-3.375 1.375,-1 2.625,-1.8126 3.75,-2.4374 1.25,-0.6252 2.4376,-1.0626 3.5624,-1.3126 2.6252,-2.5 5,-4.6874 7.1252,-6.5626 2.25,-2 4.5624,-4 6.9374,-6 4.5,-3.6248 8.875,-7.5 13.125,-11.6248 4.25,-4.25 7.625,-9.5 10.125,-15.75 1.375,-0.8752 2.9374,-1.3126 4.6874,-1.3126 1.75,0 3.5,0.375 5.25,1.125 1.75,0.625 3.5,1.375 5.25,2.25 0.3752,0.25 0.6876,0.4376 0.9376,0.5624 0.375,0.1252 0.75,0.3126 1.125,0.5626 0,1.375 0.5626,2.625 1.6874,3.75 0.6252,0.5 1.0626,0.8126 1.3126,0.9374 0.25,0.1252 0.5,0.25 0.75,0.3752 1,0.6248 1.8126,1.1874 2.4374,1.6874 0.75,0.5 1.3126,1.1874 1.6876,2.0626 1.125,3.3748 3,6 5.625,7.8748 -0.25,1.3752 -0.1874,2.75 0.1874,4.1252 0.3752,1.25 0.8126,2.5 1.3126,3.75 0.25,0.5 0.4374,1 0.5626,1.5 0.1248,0.3748 0.3124,0.8748 0.5624,1.5 l -4.125,-0.3752 0.5626,4.1252 c 0.3748,2.1248 0.1874,4.5 -0.5626,7.1248 -0.625,2.6252 -1.375,4.6876 -2.25,6.1876 0.25,3.75 0.375,6.75 0.375,9 0,2.125 -0.125,4.125 -0.375,6 -0.25,1.875 -0.6874,3.6876 -1.3126,5.4376 -0.5,1.6248 -1.1874,3.3748 -2.0624,5.25 0.5,9.5 -0.625,18.1874 -3.375,26.0624 -2.625,7.875 -5.5,15.25 -8.625,22.126 -0.375,0.874 -0.75,1.686 -1.125,2.436 -0.375,0.75 -0.6874,1.5 -0.9374,2.25 -1.3752,0.376 -2.6252,0.814 -3.75,1.314 -1.1252,0.5 -2.1876,1.062 -3.1876,1.686 -1.375,0.876 -2.75,1.626 -4.125,2.25 -1.375,0.5 -2.8126,0.75 -4.3126,0.75 -6,-4.374 -9.1248,-11.937 -9.3748,-22.687 -0.1252,-10.75 2.1874,-24.4374 6.9374,-41.0626 0.875,-0.6248 1.25,-1.5624 1.125,-2.8124 V 91.6876 L 142.6875,91.5 c -0.625,0 -1.1874,0.0624 -1.6874,0.1876 -0.5,0.1248 -0.8752,0.6874 -1.1252,1.6874 -4,2.875 -8.3748,5.875 -13.1248,9 -4.6252,3 -9.4376,5.8126 -14.4376,8.4374 -5,2.5 -10.125,4.6252 -15.375,6.3752 -5.125,1.6248 -10.125,2.4374 -15,2.4374 -12.5,0 -21.9374,-6.375 -28.3126,-19.125 l -1.6874,-3.375 -1.875,3 c -0.375,0.625 -1.0624,1.875 -2.0624,3.75 -0.8752,1.75 -1.8126,3.8126 -2.8126,6.1874 -0.875,2.3752 -1.6874,4.8126 -2.4374,7.3126 -0.6252,2.5 -0.8126,4.6874 -0.5626,6.5626 -1.5,1.3748 -3,2.9374 -4.5,4.6874 -1.375,1.75 -2.375,3.75 -3,6 -0.25,0.625 -0.3126,1.25 -0.1874,1.875 0.1248,0.5 0.3124,1.0624 0.5624,1.6876 -0.125,0.8748 -0.375,1.5 -0.75,1.8748 -0.375,0.3752 -0.8124,0.75 -1.3124,1.1252 -0.6252,0.6248 -1.25,1.3124 -1.8752,2.0624 -0.6248,0.625 -1.1874,1.375 -1.6874,2.25 -0.25,0.75 -0.4374,1.5624 -0.5626,2.4376 -0.1248,0.75 -0.25,1.4364 -0.3748,2.0624 0,1.374 -0.1876,2.312 -0.5626,2.812 -1.25,2.626 -2.375,4.814 -3.375,6.562 -0.875,1.626 -1.75,2.876 -2.625,3.752 -0.875,0.874 -1.8126,1.436 -2.8126,1.686 -0.8749,0.376 -1.9374,0.562 -3.1874,0.562 z m 248.063,-2.248 c -2,0.124 -4.5,0.062 -7.5,-0.188 -2.876,-0.25 -5.562,0.188 -8.062,1.312 -6.626,-0.25 -13.376,-1.062 -20.252,-2.438 -6.874,-1.374 -13.186,-3.062 -18.936,-5.062 -1.25,-1.376 -2.5,-2.624 -3.75,-3.75 -1.25,-1.25 -2.938,-2.126 -5.062,-2.626 -3.001,-2.374 -5.4384,-5.249 -7.3136,-8.624 -1.8748,-3.5 -3.3748,-7.1876 -4.5,-11.0624 -1.1248,-3.8752 -1.8748,-7.8126 -2.25,-11.8126 -0.3748,-4.125 -0.5,-8.0626 -0.3748,-11.8126 1.8748,-5.6248 4.5,-10.4374 7.8748,-14.4374 3.5,-4.125 7.0636,-8.1874 10.6876,-12.1874 1.624,-0.75 2.812,-1.5 3.562,-2.25 0.876,-0.8752 1.75,-1.6252 2.626,-2.25 1,-0.75 1.936,-1.4376 2.812,-2.0626 1,-0.75 1.876,-1.625 2.624,-2.625 2.626,-0.625 4.876,-1.5 6.752,-2.625 2,-1.25 3.936,-2.5 5.812,-3.75 1.874,-1.375 3.812,-2.625 5.812,-3.75 2,-1.125 4.312,-2 6.938,-2.625 1,-1.125 2.186,-2 3.562,-2.625 1.376,-0.75 2.75,-1.4374 4.124,-2.0626 1.5,-0.75 2.876,-1.5 4.126,-2.25 1.374,-0.75 2.438,-1.75 3.188,-3 0.624,1 1.5,1.3752 2.624,1.1252 1.126,-0.3752 2.188,-0.75 3.188,-1.1252 0.626,-0.1248 1.126,0 1.5,0.3752 0.5,0.3748 0.938,0.75 1.312,1.1248 0.376,0.3752 0.688,0.6252 0.938,0.75 0.376,0 0.688,-0.3124 0.938,-0.9374 0.624,0 0.812,0.3126 0.562,0.9374 -0.25,0.6252 -0.438,1.0626 -0.562,1.3126 1,-0.125 1.812,0.125 2.438,0.75 0.748,0.5 1.874,0.8126 3.374,0.9374 0.5,0.6252 0.626,1.1252 0.374,1.5 -0.248,0.25 -0.374,0.75 -0.374,1.5 3.75,1.1252 6.126,2.9376 7.126,5.4376 1,2.375 1.062,4.875 0.186,7.5 -0.874,2.625 -2.438,5.0624 -4.686,7.3124 -2.252,2.25 -4.688,3.75 -7.314,4.5 -6,1.6252 -11.686,3.4376 -17.062,5.4376 -5.25,1.875 -9.562,4.6876 -12.938,8.4376 -3,0.8748 -5.686,2.0624 -8.062,3.5624 -2.25,1.375 -4.438,3 -6.562,4.875 -2,1.75 -3.938,3.625 -5.814,5.625 -1.748,1.875 -3.624,3.75 -5.624,5.625 0.124,1.75 -0.188,3.125 -0.938,4.125 -0.624,0.875 -1.25,1.8124 -1.874,2.8124 0.25,1.8752 0.688,3.5626 1.312,5.0626 0.624,1.375 1.312,2.75 2.062,4.125 8.25,2.5 17,4.0624 26.25,4.6876 9.376,0.6248 18.75,1 28.126,1.1248 0.874,1.25 1.874,2.4376 3,3.5626 1.25,1 2.374,2.125 3.374,3.375 1,1.125 1.812,2.4376 2.438,3.9376 0.626,1.3744 0.75,3.1244 0.374,5.2504 -1.748,1.874 -3.686,3.624 -5.812,5.25 -2.124,1.5 -4.25,3.062 -6.374,4.688 z m 24.374,-34.6884 c 0.126,-0.5 0.188,-0.8752 0.188,-1.1252 0.124,-0.25 -0.062,-0.5624 -0.562,-0.9374 -0.25,-0.875 -0.062,-1.4374 0.562,-1.6874 0.624,-0.25 1.25,-0.5 1.876,-0.75 0.624,-7.5 1.874,-14.3126 3.748,-20.4376 2,-6.25 4.126,-12.3124 6.376,-18.1876 2.376,-5.8748 4.688,-11.75 6.938,-17.6248 2.374,-6 4.312,-12.5 5.812,-19.5 1.626,-1.6252 2.938,-3.5626 3.938,-5.8126 1.124,-2.25 2.188,-4.5 3.188,-6.75 1.124,-2.375 2.374,-4.625 3.748,-6.75 1.5,-2.125 3.5,-3.875 6,-5.25 1.126,0.125 2.126,0.375 3,0.75 1,0.25 1.938,0.5626 2.814,0.9374 0.874,0.3752 1.812,0.6876 2.812,0.9376 1,0.25 2.062,0.375 3.188,0.375 0.5,0.625 0.938,1.375 1.312,2.25 0.374,0.75 0.874,1.4374 1.5,2.0626 l 3.374,-0.5626 c 1.626,1.375 3.064,3.125 4.314,5.25 1.25,2 2.124,4.125 2.624,6.375 0.5,2.125 0.438,4.25 -0.186,6.375 -0.626,2 -2.064,3.5626 -4.314,4.6874 0.126,0.75 0.126,1.3126 0,1.6876 -0.124,0.375 -0.312,0.75 -0.562,1.125 -0.124,0.25 -0.188,0.5626 -0.188,0.9374 0,0.25 0.25,0.6252 0.75,1.1252 -1.374,1.1248 -2.624,2.5624 -3.75,4.3124 -1.124,1.625 -2.062,3.375 -2.812,5.25 -0.75,1.875 -1.376,3.75 -1.876,5.625 -0.374,1.875 -0.624,3.625 -0.748,5.25 3.624,-3.75 7.874,-7.25 12.748,-10.5 4.876,-3.25 9.126,-6.3126 12.752,-9.1874 2.874,-2 5.374,-3.8752 7.5,-5.6252 2.248,-1.8748 4.5,-3.5624 6.748,-5.0624 2.252,-1.625 4.564,-3.125 6.938,-4.5 2.5,-1.5 5,-3.125 7.5,-4.875 1.25,-0.5 2.188,-0.625 2.814,-0.375 0.748,0.25 1.436,0.5624 2.062,0.9376 0.124,-0.8752 -0.062,-1.3752 -0.562,-1.5 -0.5,-0.25 -0.688,-0.8752 -0.564,-1.8752 2.126,-0.6248 4,-1.3748 5.626,-2.25 1.75,-0.8748 3.562,-1.6874 5.438,-2.4374 1.248,1.375 2.5,2.875 3.748,4.5 1.252,1.5 2.938,2.3126 5.064,2.4374 0.75,1.6252 1.624,2.8752 2.624,3.75 1.126,0.75 2.188,1.5 3.188,2.25 1.124,0.75 2.062,1.6876 2.812,2.8126 0.75,1 1.188,2.625 1.312,4.875 -0.5,1 -1.124,2.125 -1.874,3.375 -0.626,1.125 -1.188,2.5626 -1.688,4.3126 -3,2.75 -6.062,5.1874 -9.186,7.3124 -3,2 -6.126,3.9376 -9.376,5.8124 -3.124,1.8752 -6.376,3.8126 -9.75,5.8126 -3.25,2 -6.562,4.3126 -9.938,6.9374 -0.75,1.1252 -1.688,2.1252 -2.812,3 -1.124,0.8752 -2.312,1.75 -3.562,2.6252 -1.126,0.75 -2.25,1.5624 -3.376,2.4374 -1,0.875 -1.812,1.9374 -2.438,3.1874 -0.5,0 -0.936,0.0626 -1.312,0.1876 -0.374,0 -0.812,0.0624 -1.312,0.1876 -0.5,1 -1.25,1.8124 -2.25,2.4374 -0.874,0.625 -1.5,1.4374 -1.874,2.4374 2.248,4.8752 5.186,8.5626 8.812,11.0626 3.624,2.5 7.688,4.3126 12.188,5.4374 4.5,1.1252 9.374,1.75 14.624,1.8752 5.25,0.1248 10.688,0.1874 16.312,0.1874 0.626,-0.125 0.876,-0.4374 0.75,-0.9374 0,-0.6252 0.376,-0.8752 1.126,-0.75 1.874,0.6248 3.436,1.3748 4.688,2.25 1.248,0.8748 2.436,1.8124 3.562,2.8124 1.124,1 2.186,2.0624 3.186,3.1876 1.126,1 2.376,2.0624 3.752,3.1874 -0.252,5.875 -2,10.6874 -5.252,14.4374 -3.124,3.6252 -7.312,6.5636 -12.562,8.8116 -7.25,0.252 -13.562,0.064 -18.938,-0.562 -5.374,-0.624 -10.686,-2 -15.936,-4.1244 -0.376,-0.1252 -0.75,-0.5 -1.126,-1.1252 -0.25,-0.6248 -0.5,-1.0624 -0.75,-1.3124 -1,-0.625 -2.124,-0.875 -3.374,-0.75 -1.25,0.125 -2.314,0 -3.188,-0.375 -1.126,-0.5 -3,-1.625 -5.626,-3.375 -2.5,-1.75 -4.812,-3.375 -6.936,-4.875 -2.626,-2.125 -5.188,-4.1874 -7.688,-6.1874 -2.376,-2.1252 -4.5,-4.4376 -6.376,-6.9376 -0.374,-0.625 -0.936,-0.9376 -1.686,-0.9376 -0.626,0 -1.25,-0.1874 -1.876,-0.5624 -4.374,2.75 -8.062,6.1876 -11.062,10.3124 -2.876,4 -5.688,8.1252 -8.438,12.3752 -2.75,4.1244 -5.686,8.0624 -8.812,11.8124 -3,3.624 -6.812,6.438 -11.438,8.438 -1.374,0 -2.562,-0.25 -3.562,-0.75 -1,-0.376 -1.938,-0.938 -2.812,-1.688 -0.876,-0.624 -1.75,-1.25 -2.626,-1.876 -0.874,-0.624 -1.874,-1.062 -3,-1.312 0,-1.75 -0.374,-3.374 -1.124,-4.874 -0.626,-1.626 -1.312,-3.062 -2.064,-4.314 -0.624,-1.374 -1.124,-2.6864 -1.5,-3.9364 -0.248,-1.25 0.126,-2.5 1.126,-3.75 -1.374,-1.1252 -2.688,-2.0626 -3.938,-2.8126 0.876,-0.875 1.25,-1.6874 1.126,-2.4374 0,-0.75 -0.188,-1.5 -0.562,-2.25 -0.376,-0.75 -0.688,-1.5 -0.938,-2.25 -0.126,-0.8752 0.124,-1.8126 0.75,-2.8126 0.5,-0.125 0.688,-0.375 0.562,-0.75 0,-0.375 0.188,-0.6874 0.562,-0.9374 z m 205.312,-14.8126 c -0.874,0.75 -1.624,1.6874 -2.248,2.8126 -0.626,1 -1.252,2.0624 -1.876,3.1874 -0.624,1.375 -1.312,2.6874 -2.062,3.9374 -0.75,1.25 -1.688,2.3752 -2.814,3.3752 -0.624,1.8748 -1.248,3.3748 -1.874,4.5 -0.626,1 -1.626,2.1874 -3,3.5624 -1.25,5 -4.188,10.4376 -8.812,16.312 -0.126,1.126 -0.5,2.25 -1.126,3.376 -0.5,1 -1.062,2 -1.688,3 -0.248,0.374 -0.5,0.812 -0.748,1.312 -0.252,0.374 -0.438,0.688 -0.564,0.938 l -0.374,1.874 c -0.626,1 -1.314,1.876 -2.062,2.626 -0.752,0.75 -1.438,1.436 -2.064,2.062 -0.25,0.374 -0.688,0.874 -1.312,1.5 l -2.812,1.126 c -9.126,-1.252 -14.688,-6.126 -16.688,-14.626 l 0.188,-1.874 c 0.25,-0.626 0.436,-1.252 0.562,-1.876 0.25,-0.75 0.5,-1.5 0.75,-2.25 0.5,-1.75 1.062,-3.5 1.688,-5.25 0.75,-1.75 1.812,-3.3124 3.188,-4.6876 0.248,-0.8748 0.812,-2.25 1.686,-4.1248 0.876,-2 2.376,-4.9376 4.5,-8.8126 1.75,-3 3.126,-5.375 4.126,-7.125 1,-1.75 1.812,-3.125 2.436,-4.125 -1.248,-2 -2.748,-3.8126 -4.5,-5.4374 -1.624,-3.1252 -3.062,-6.1252 -4.312,-9 -1.124,-2.8752 -2,-5.4376 -2.624,-7.6876 -0.126,-1.625 -0.312,-3 -0.564,-4.125 -0.248,-1.125 -0.5,-2.3126 -0.748,-3.5626 -0.376,-1.3748 -0.688,-2.75 -0.938,-4.1248 -0.25,-1.3752 -0.376,-2.8126 -0.376,-4.3126 -0.624,-0.875 -1,-1.75 -1.124,-2.625 l 0.374,-1.875 c 0.376,-0.875 0.438,-2 0.188,-3.375 -0.25,-1.5 -0.562,-3 -0.938,-4.5 -0.25,-1.25 -0.562,-2.625 -0.938,-4.125 -0.248,-1.5 -0.312,-3 -0.186,-4.5 0.124,-1.5 0.5,-2.875 1.124,-4.125 0.75,-1.375 1.938,-2.5624 3.562,-3.5624 l 3.188,-0.1876 c 1.126,0.625 2.188,1.25 3.188,1.875 1.124,0.5 2.188,1.0626 3.188,1.6874 1.374,0.6252 2.688,1.25 3.936,1.8752 1.252,0.6248 2.564,1.4374 3.938,2.4374 l 1.314,2.625 2.436,2.0624 v 2.0626 c 0.126,0.5 0.188,1.1874 0.188,2.0626 0,1.6248 0.25,2.6248 0.75,3 l 0.75,2.25 c 0,1.75 0.188,3.4374 0.562,5.0624 0.376,1.5 0.75,2.9376 1.126,4.3124 0.374,1.3752 0.75,2.8126 1.124,4.3126 0.376,1.5 0.438,3.125 0.188,4.875 0.75,-0.375 1.376,-0.8124 1.876,-1.3124 0.248,-0.25 0.5,-0.4376 0.748,-0.5626 0.252,-0.125 0.5,-0.3126 0.752,-0.5626 l 11.062,-15 -0.376,-1.8748 3.938,-3.75 c 1,-1 1.938,-1.9376 2.812,-2.8126 1,-0.875 1.812,-1.8126 2.438,-2.8126 l 2.062,-1.5 c 4,-6.25 9.688,-10.1248 17.064,-11.6248 l 2.624,-0.3752 0.75,2.4376 c 0.5,1.375 1.5,2.625 3,3.75 1.626,1.125 3.312,2.1876 5.062,3.1876 l 1.688,1.1248 c 0.624,1.25 0.938,2.1876 0.938,2.8126 0,0.625 -0.062,1.1874 -0.188,1.6874 l 0.75,1.8752 c -1,3 -2.25,5.1874 -3.75,6.5624 -1.374,1.375 -2.75,2.625 -4.126,3.75 -1.124,1 -2.186,1.9376 -3.186,2.8124 -0.876,0.75 -1.562,1.75 -2.062,3 l -1.314,1.5 c -2.624,1.5 -4.312,3.5 -5.062,6 l -0.562,2.25 h -2.25 c -0.126,0 -0.438,0.25 -0.938,0.75 -0.374,0.3752 -1,1.4376 -1.874,3.1876 -0.876,1.25 -1.5,2.0624 -1.876,2.4376 -0.376,0.3748 -0.688,0.6874 -0.938,0.9374 -0.124,0.5 -0.312,1 -0.562,1.5 -0.124,0.375 -0.312,0.875 -0.562,1.5 -1.626,1.625 -2.626,2.875 -3,3.75 -0.376,0.75 -0.814,1.625 -1.314,2.625 -0.5,1 -1,2 -1.5,3 -0.374,0.875 -1.062,1.8124 -2.062,2.8124 z m 66.376,47.063 c -3.5,1.124 -7.312,2.25 -11.438,3.374 -4.124,1.126 -8.25,1.688 -12.374,1.688 -6.25,0 -11.188,-1.562 -14.812,-4.688 -0.626,-1.374 -1.188,-2.312 -1.688,-2.812 -0.376,-0.5 -0.75,-1 -1.126,-1.5 -0.25,-0.624 -0.438,-1.438 -0.562,-2.438 -1.5,-1.75 -2.688,-3.75 -3.562,-5.9996 -0.876,-2.3748 -1.5,-4.75 -1.876,-7.1248 -0.25,-2.5 -0.312,-5 -0.186,-7.5 0.248,-2.5 0.686,-4.8752 1.312,-7.1252 0.25,-0.5 0.374,-1 0.374,-1.5 0.126,-0.5 0.25,-1.0624 0.376,-1.6874 0.5,-2 1,-3.9374 1.5,-5.8126 0.624,-1.8748 1.438,-3.5 2.438,-4.8748 -0.5,-1.1252 -0.5,-2.3752 0,-3.75 0.5,-1.3752 1.062,-2.6252 1.686,-3.75 1.75,-4.75 3.188,-8.75 4.314,-12 1.248,-3.3752 2.5,-6.6876 3.748,-9.9376 2.126,-5.625 4.126,-11.1876 6,-16.6876 1.876,-5.5 3.564,-11.4374 5.064,-17.8124 1,-0.625 1.75,-1.0624 2.25,-1.3124 0.75,-0.25 1.374,-0.4376 1.874,-0.5626 2.25,1.125 4.876,2.25 7.876,3.375 3,1 5.5,1.5 7.5,1.5 1,0.625 1.624,1.125 1.874,1.5 0.25,0.25 0.5,0.5 0.75,0.75 1.376,1.625 2.564,3.3124 3.564,5.0624 1,1.6252 1.312,3.8126 0.936,6.5626 -0.75,1.125 -1.312,1.6874 -1.688,1.6874 -0.624,2.5 -1.312,4.6252 -2.062,6.3752 -0.624,1.75 -1.312,3.5 -2.062,5.25 -0.876,1.8748 -1.688,3.75 -2.438,5.6248 -0.75,1.8752 -1.374,4.1876 -1.874,6.9376 -0.5,0.625 -0.876,1.1876 -1.126,1.6876 -0.124,0.5 -0.312,1.0624 -0.562,1.6874 -0.25,0.625 -0.562,1.3126 -0.938,2.0626 -0.25,0.6248 -0.686,1.1874 -1.312,1.6874 -0.374,3.25 -1,5.875 -1.874,7.875 -0.752,2 -1.564,4 -2.438,6 -1.5,3.625 -2.876,7.25 -4.126,10.875 -1.124,3.625 -1.812,7.75 -2.062,12.375 0.626,-0.25 1.188,-0.375 1.688,-0.375 0.624,0 1.186,0 1.686,0 1.126,0 2.438,0.1874 3.938,0.5626 3.75,-2 7.814,-3.1876 12.188,-3.5626 4.5,-0.375 8.938,-0.625 13.312,-0.75 1.75,0 3.5,0 5.25,0 1.75,0 3.376,-0.125 4.876,-0.375 1.124,0.625 1.812,1 2.062,1.125 0.374,0 0.874,0 1.5,0 0.874,0 1.626,0.0626 2.25,0.1874 1.5,1.3752 2.938,2.3752 4.312,3 1.376,0.6252 2.812,1.1876 4.312,1.6876 1.376,0.5 2.688,1.0624 3.938,1.6876 1.376,0.5 2.688,1.25 3.938,2.25 l 1.312,8.0624 c 0.876,1.124 1.25,1.876 1.126,2.25 0,1 -0.25,1.75 -0.75,2.25 l 0.374,2.062 c -1.874,0.376 -3.186,0.814 -3.938,1.314 -0.624,0.5 -1.248,1.062 -1.874,1.686 -1,0.126 -1.75,0.188 -2.25,0.188 -0.376,0 -0.75,0 -1.124,0 -1.752,0 -3.876,0.312 -6.376,0.938 -3.376,-1.126 -6.876,-1.688 -10.5,-1.688 -1.376,0 -2.812,0.062 -4.312,0.188 -1.5,0.124 -3,0.25 -4.5,0.374 -1.5,0.25 -3.064,0.438 -4.688,0.562 -1.5,0.126 -3.062,0.188 -4.688,0.188 z M 712.1245,147 c -0.75,2.126 -1.874,4.312 -3.374,6.562 -1.376,2.126 -3.064,4.064 -5.064,5.812 -1.874,1.626 -4,3 -6.374,4.126 -2.374,1.126 -4.874,1.75 -7.5,1.874 -1.626,-0.374 -2.75,-0.812 -3.374,-1.312 -0.5,-0.374 -1.064,-0.75 -1.688,-1.124 -0.376,-0.25 -0.75,-0.438 -1.126,-0.564 -0.25,-0.248 -0.5,-0.436 -0.75,-0.562 l -2.25,-0.938 0.75,-2.436 c 0.25,-1 0.188,-1.75 -0.188,-2.25 -0.374,-0.626 -1.124,-1.438 -2.248,-2.438 -0.376,-0.376 -0.752,-0.75 -1.126,-1.124 -0.374,-0.376 -0.688,-0.752 -0.938,-1.126 l -3.188,-3.5624 5.064,-1.3126 c 3.124,-0.875 5.188,-2 6.188,-3.375 1.124,-1.375 1.562,-3.6876 1.312,-6.9376 -2.5,-0.5 -4.626,-0.5624 -6.376,-0.1874 -1.624,0.375 -3.312,0.8126 -5.062,1.3126 -2.25,0.6248 -4.562,1.1874 -6.938,1.6874 -2.25,0.375 -4.75,0.5626 -7.5,0.5626 -1,0 -1.936,0 -2.812,0 -0.876,-0.1252 -1.812,-0.25 -2.812,-0.3752 l -1.876,-0.3748 c -0.25,-1.3752 -0.5,-2.1252 -0.75,-2.25 -0.25,-0.25 -0.5,-0.5 -0.75,-0.75 -0.624,-0.6252 -1.312,-1.4376 -2.062,-2.4376 -0.626,-1.125 -0.75,-2.5 -0.374,-4.125 -0.626,-1.125 -1,-2.25 -1.126,-3.375 -0.75,1.5 -1.312,3.0624 -1.688,4.6876 l -0.75,1.8748 -1.874,0.3752 c -0.25,0.1248 -0.438,0.4374 -0.562,0.9374 -0.126,0.375 -0.188,0.6874 -0.188,0.9374 L 641.8125,138 c -0.25,0.25 -0.5,0.5 -0.75,0.75 -0.25,0.125 -0.5,0.3124 -0.75,0.5624 -0.25,1.1252 -0.562,2.25 -0.938,3.3752 -0.374,1.1248 -0.75,2.1874 -1.124,3.1874 -0.626,1.625 -1.188,3.251 -1.688,4.875 -0.376,1.5 -0.5,3 -0.376,4.5 l -0.748,2.062 c -0.626,0.75 -1.314,1.376 -2.064,1.876 -0.75,0.374 -1.5,0.75 -2.25,1.124 -0.25,0.25 -0.624,0.5 -1.124,0.75 -0.376,0.126 -0.688,0.25 -0.938,0.376 l -0.562,2.062 -2.25,0.374 c -1.376,0.252 -2.376,0.438 -3,0.564 -0.5,0.124 -1.126,0.188 -1.876,0.188 l -1.874,-0.188 c -1.376,-1.126 -2.438,-2 -3.188,-2.626 -0.75,-0.75 -1.626,-1.438 -2.626,-2.062 -1.124,-1.5 -1.748,-2.624 -1.874,-3.376 -0.126,-0.748 -0.25,-1.436 -0.374,-2.062 -0.252,-0.75 -0.376,-1.374 -0.376,-1.874 -0.124,-0.5 -0.312,-0.876 -0.562,-1.126 l -2.438,-2.25 2.062,-1.687 0.188,-3.1874 c 2.5,-6.3752 5.126,-12.5 7.874,-18.3752 2.876,-5.8748 5.814,-11.8748 8.814,-18 1,-2 1.938,-4 2.812,-6 1,-2 2,-4 3,-6 -0.126,-0.3748 -0.188,-0.8124 -0.188,-1.3124 0,-0.5 0.126,-1.0624 0.376,-1.6876 1.374,-2.1248 2.5,-4 3.374,-5.6248 0.876,-1.75 1.75,-3.5 2.626,-5.25 1,-2.1252 2,-4.1876 3,-6.1876 1.124,-2 2.5,-4.0624 4.124,-6.1876 l 3,-1.3124 c 0.376,-0.125 0.814,-0.25 1.314,-0.375 0.5,-0.25 1.062,-0.375 1.686,-0.375 l 2.814,0.375 c 3.5,-1.625 6.562,-3.875 9.186,-6.75 2.626,-3 5.314,-6.5626 8.062,-10.6874 l 1.876,-2.6252 2.438,1.5 c 0.624,0.3752 1.5,0.75 2.624,1.1252 1.126,0.25 2.314,0.5624 3.562,0.9374 2.252,0.5 4.376,1.0626 6.376,1.6874 2,0.6252 3.624,1.5626 4.876,2.8126 0.748,2 1.186,3.5 1.312,4.5 0.124,1 0.312,2 0.562,3 0.374,2.125 0.688,4.25 0.938,6.375 0.374,2.125 0.624,4.5 0.75,7.125 0.624,2.125 1.124,4.25 1.5,6.375 0.5,2 0.938,4.0624 1.312,6.1876 0.626,3 1.25,5.9374 1.874,8.8124 0.626,2.75 1.438,5.375 2.438,7.875 1,0 1.626,0.0626 1.876,0.1874 0.624,-0.25 1.25,-0.4374 1.874,-0.5624 0.75,-0.125 1.564,-0.25 2.438,-0.375 l 2.062,-0.1874 0.75,1.8748 c 0.126,0.6252 0.75,1.25 1.876,1.8752 1.624,0.1248 2.812,0.5 3.562,1.1248 0.75,0.5 1.438,1.0626 2.062,1.6876 0.5,0.5 1,0.875 1.5,1.125 l 2.814,1.125 -1.5,2.8124 c -1.252,2.25 -3.064,4.4376 -5.438,6.5626 -2.25,2 -4.814,3.6874 -7.688,5.0626 0.126,0.75 0.188,1.5 0.188,2.25 0.124,0.6248 0.312,1.3124 0.562,2.0624 0.376,2.125 0.688,4.3124 0.938,6.5624 0.25,2.25 0.25,4.5626 0,6.9376 z m -54.186,-32.4376 c 3.748,-0.25 7.124,-0.5 10.124,-0.75 3.124,-0.3748 6.562,-0.9374 10.312,-1.6874 -0.874,-3.75 -1.812,-7.625 -2.812,-11.625 -1,-4.125 -2.062,-8.1876 -3.188,-12.1876 l -1.124,1.8752 c -2.5,2.6248 -4.938,5.5624 -7.312,8.8124 -2.252,3.25 -4.188,6.3124 -5.814,9.1876 -0.75,1.1248 -1.5,2.25 -2.25,3.3748 -0.75,1.1252 -1.436,2.25 -2.062,3.3752 0.75,-0.1252 1.438,-0.1876 2.062,-0.1876 0.75,0 1.438,-0.0624 2.064,-0.1876 z m 71.062,-99.3748 0.186,2.0624 c -0.874,1.5 -1.624,2.75 -2.248,3.75 -0.5,1 -0.876,2.0624 -1.126,3.1876 -1.374,1.3748 -2.438,2.25 -3.188,2.6248 -0.75,0.25 -1.438,0.5 -2.062,0.75 -1.376,0.5 -2.312,1 -2.812,1.5 l -1.876,2.8126 -1.874,-1.6874 -2.814,2.6248 c -1.374,-1.1248 -2.374,-1.9374 -3,-2.4374 -0.624,-0.625 -1.248,-1.125 -1.874,-1.5 -0.5,-0.375 -1.25,-0.75 -2.25,-1.125 -0.876,-0.5 -2.312,-1.1876 -4.312,-2.0624 l -2.626,-0.9376 0.75,-2.4376 c 0.25,-0.6248 0.312,-1.75 0.188,-3.3748 0,-1.6252 0.062,-3 0.188,-4.1252 0.124,-2 0.124,-3.8748 0,-5.6248 -0.126,-1.7502 0.188,-3.3126 0.936,-4.6876 2.626,-1.375 4.688,-2.3126 6.188,-2.8124 1.25,0.1248 2.438,0.25 3.564,0.3748 1.124,0.125 2.248,0.2502 3.374,0.3752 0.874,0.1248 1.438,0.25 1.688,0.3748 0.25,0 0.374,0 0.374,0 0.126,0 0.312,0 0.564,0 0.248,-0.1248 0.748,-0.3124 1.5,-0.5624 l 2.248,0.375 c 0.876,0.375 1.564,0.9374 2.064,1.6874 0.624,0.6252 1.25,1.25 1.874,1.8752 0.5,1 1,1.6248 1.5,1.8748 l 2.25,0.1876 0.75,2.25 c 0.626,1.25 1,2.1874 1.126,2.8124 0.25,0.5 0.5,1.1252 0.75,1.8752 z M 672.9385,7.875 c 1.374,1.5 2.748,2.875 4.124,4.125 1.376,1.25 2.188,2.625 2.438,4.125 -0.5,2 -0.938,3.375 -1.314,4.125 -0.248,0.75 -0.562,1.5624 -0.936,2.4376 -1.626,1.3748 -3.5,2.8124 -5.626,4.3124 -0.75,0.625 -1.25,1 -1.5,1.125 -0.25,0.125 -0.438,0.25 -0.562,0.375 0,0 -0.062,0.125 -0.188,0.375 0,0.125 -0.188,0.5626 -0.562,1.3126 l -1.874,1.3124 c -1,0.375 -1.938,0.5624 -2.814,0.5624 -0.874,-0.1248 -1.75,-0.25 -2.624,-0.3748 -0.376,0 -0.876,0 -1.5,0 -0.5,-0.1252 -0.876,-0.1876 -1.126,-0.1876 l -1.5,1.5 -2.25,-0.9376 c -1.374,-0.6248 -2.374,-1 -3,-1.1248 -0.5,-0.25 -1.062,-0.6252 -1.686,-1.1252 l -1.688,-1.1248 c -0.5,-1.8752 -0.938,-3.3126 -1.312,-4.3126 -0.252,-1.125 -0.626,-2.1874 -1.126,-3.1874 0,-2.1252 0.126,-3.5626 0.374,-4.3126 0.252,-0.75 0.5,-1.4374 0.752,-2.0626 0.748,-1.3748 1.062,-2.3748 0.936,-3 l -0.75,-3.3748 2.814,-0.1876 V 4.3124 c 1.748,-0.1248 3.062,-0.1874 3.936,-0.1874 0.876,0 1.688,-0.0626 2.438,-0.1874 0.75,-0.2502 1.562,-0.5626 2.438,-0.9376 1,-0.375 2.562,-1 4.688,-1.875 l 2.624,-1.125 1.124,2.4376 c 0.252,0.4998 0.938,1.3124 2.064,2.4374 1.25,1.125 2.312,2.125 3.188,3 z m 90,120.75 c -1.126,0.25 -1.938,0.9374 -2.438,2.0626 -0.5,1 -1,2.0624 -1.5,3.1874 -0.376,1.125 -0.814,2.1874 -1.314,3.1874 -0.374,0.8752 -1,1.3126 -1.874,1.3126 -0.126,1 -0.5,1.875 -1.126,2.625 -0.5,0.75 -1,1.5624 -1.5,2.4376 -0.5,0.75 -0.874,1.6248 -1.124,2.6248 -0.25,0.8752 -0.124,1.9376 0.376,3.1876 -1,0.75 -1.626,1.812 -1.876,3.188 -0.25,1.374 -0.562,2.688 -0.938,3.936 -0.25,1.252 -0.75,2.314 -1.5,3.188 -0.75,0.876 -2.124,1.25 -4.124,1.126 -0.376,0.5 -0.438,0.812 -0.188,0.938 0.25,0.124 0.438,0.562 0.562,1.312 -1.374,-0.25 -2.436,-0.188 -3.188,0.188 -0.624,0.5 -1.436,0.812 -2.436,0.936 -2.376,-0.75 -4.376,-2.062 -6,-3.936 -1.5,-1.876 -2.876,-3.938 -4.126,-6.188 -1.124,-2.376 -2.186,-4.75 -3.186,-7.1256 -0.876,-2.3748 -1.752,-4.4374 -2.626,-6.1874 0.374,-1.375 0.438,-2.6874 0.188,-3.9374 -0.25,-1.3752 -0.688,-2.5 -1.314,-3.3752 6.126,-13 12.814,-26.8748 20.064,-41.6248 7.25,-14.75 14.124,-29.3126 20.624,-43.6876 2.876,1.125 5.688,2.4376 8.438,3.9376 2.874,1.3748 5.438,3 7.688,4.8748 2.374,1.8752 4.374,4.0626 6,6.5626 1.624,2.375 2.686,5.0626 3.186,8.0626 -0.248,0.75 -0.562,1.0624 -0.936,0.9374 -0.25,-0.25 -0.5,-0.1874 -0.75,0.1874 0.5,0.6252 0.75,1.0626 0.75,1.3126 0.124,0.25 0.124,0.5 0,0.75 0,0.25 0,0.625 0,1.125 0,0.375 0.188,0.9376 0.562,1.6876 -0.5,-0.1252 -0.874,-0.0626 -1.126,0.1874 -0.124,0.25 -0.5,0.25 -1.124,0 0.5,1.375 0.624,2.5 0.376,3.375 -0.126,0.875 -0.376,1.6876 -0.752,2.4376 -0.374,0.6248 -0.686,1.3748 -0.936,2.25 -0.25,0.75 -0.188,1.75 0.188,3 -0.376,0 -0.688,0.1248 -0.938,0.3748 -0.126,0.1252 -0.25,0.3126 -0.376,0.5626 -0.124,0.125 -0.312,0.3126 -0.562,0.5626 -0.124,0.1248 -0.376,0.1248 -0.75,0 0.374,2.75 0.5,5.5 0.374,8.25 -0.124,2.75 -0.248,5.5624 -0.374,8.4374 0,2.75 0.062,5.6874 0.188,8.8126 0.124,3 0.562,6.1248 1.312,9.3748 4.5,-2.6248 8.062,-6 10.688,-10.1248 2.75,-4.1252 4.938,-8.75 6.562,-13.8752 1.75,-5.1248 3.062,-10.6248 3.938,-16.5 0.874,-5.8748 1.812,-11.8748 2.812,-18 1.126,-1.1248 2,-2.5 2.626,-4.1248 0.624,-1.6252 1.186,-3.3126 1.686,-5.0626 0.5,-1.875 1,-3.6874 1.5,-5.4374 0.5,-1.8752 1.126,-3.5626 1.876,-5.0626 1.874,0.25 3.438,0.875 4.686,1.875 1.376,0.875 2.626,1.875 3.752,3 1.124,1 2.312,2 3.562,3 1.25,0.875 2.812,1.4376 4.686,1.6876 1.5,2.1248 2.876,4.1874 4.126,6.1874 1.25,2 2.062,4.125 2.438,6.375 -0.626,1 -1.126,2.125 -1.5,3.375 -0.25,1.25 -0.564,2.5 -0.938,3.75 -0.374,1.25 -0.874,2.4374 -1.5,3.5626 -0.626,1 -1.5,1.8748 -2.626,2.6248 -0.374,3.25 -0.874,6.25 -1.5,9 -0.5,2.6252 -1.062,5.25 -1.686,7.8752 -0.5,2.6248 -0.938,5.3748 -1.314,8.25 -0.374,2.75 -0.5,5.8124 -0.374,9.1874 -1,2.875 -2.062,5.9374 -3.188,9.1874 -1.124,3.25 -2,6.1876 -2.624,8.8126 -2,1.625 -3.562,3.5626 -4.688,5.8126 -1.126,2.25 -2.312,4.5 -3.562,6.75 -0.5,0.5 -0.812,0.6248 -0.938,0.3748 -0.126,-0.25 -0.562,-0.4374 -1.312,-0.5624 0.124,0.5 0.124,0.875 0,1.125 -0.126,0.25 -0.314,0.5 -0.562,0.749 -0.126,0.126 -0.252,0.376 -0.376,0.752 0,0.374 0.124,0.874 0.376,1.5 -1.752,0.748 -3.314,1.812 -4.688,3.186 -1.376,1.376 -2.876,2.626 -4.5,3.75 -1.5,1.126 -3.376,1.876 -5.626,2.25 -2.124,0.376 -4.938,-0.062 -8.438,-1.312 -5.124,-3.75 -9.686,-8.062 -13.686,-12.9376 -3.876,-4.8748 -7.062,-10.6874 -9.562,-17.4374 z"
     id="path2"
     inkscape:connector-curvature="0"
     style="fill:#ffffff;stroke-width:2" />
  <path
     d="m 163.3981,239.206 c 0,-0.864 0.312,-1.752 0.936,-2.664 0.624,-0.96 1.344,-1.44 2.16,-1.44 0.528,0 1.176,0.264 1.944,0.792 0.816,0.528 1.872,1.08 3.168,1.656 1.296,0.528 2.832,0.792 4.608,0.792 3.504,0 5.256,-1.032 5.256,-3.096 0,-1.152 -0.6,-2.064 -1.8,-2.736 -1.152,-0.672 -2.568,-1.224 -4.248,-1.656 -1.632,-0.432 -3.288,-0.936 -4.968,-1.512 -1.68,-0.624 -3.12,-1.632 -4.32,-3.024 -1.152,-1.44 -1.728,-3.264 -1.728,-5.472 0,-2.928 1.032,-5.448 3.096,-7.56 2.064,-2.112 5.328,-3.168 9.792,-3.168 2.976,0 5.616,0.456 7.92,1.368 2.352,0.912 3.528,2.016 3.528,3.312 0,0.816 -0.336,1.776 -1.008,2.88 -0.624,1.056 -1.416,1.584 -2.376,1.584 -0.384,0 -1.44,-0.336 -3.168,-1.008 -1.68,-0.72 -3.264,-1.08 -4.752,-1.08 -1.632,0 -2.88,0.336 -3.744,1.008 -0.864,0.672 -1.296,1.416 -1.296,2.232 0,0.816 0.432,1.488 1.296,2.016 0.864,0.528 1.92,0.936 3.168,1.224 1.296,0.288 2.688,0.696 4.176,1.224 1.488,0.48 2.856,1.056 4.104,1.728 1.296,0.672 2.376,1.728 3.24,3.168 0.864,1.392 1.296,3.096 1.296,5.112 0,3.264 -1.176,5.832 -3.528,7.704 -2.304,1.872 -5.544,2.808 -9.72,2.808 -3.6,0 -6.672,-0.624 -9.216,-1.872 -2.544,-1.248 -3.816,-2.688 -3.816,-4.32 z m 45.7964,-8.424 v -17.28 c 0,-0.72 0.456,-1.392 1.368,-2.016 0.96,-0.624 2.064,-0.936 3.312,-0.936 1.2,0 2.256,0.312 3.168,0.936 0.96,0.624 1.44,1.296 1.44,2.016 v 17.28 c 0,1.68 0.624,3.192 1.872,4.536 1.248,1.296 2.736,1.944 4.464,1.944 1.728,0 3.192,-0.648 4.392,-1.944 1.248,-1.344 1.872,-2.856 1.872,-4.536 V 213.43 c 0,-0.768 0.456,-1.44 1.368,-2.016 0.96,-0.576 2.064,-0.864 3.312,-0.864 1.344,0 2.448,0.288 3.312,0.864 0.864,0.576 1.296,1.248 1.296,2.016 v 17.352 c 0,3.888 -1.536,7.296 -4.608,10.224 -3.072,2.928 -6.72,4.392 -10.944,4.392 -4.224,0 -7.896,-1.464 -11.016,-4.392 -3.072,-2.928 -4.608,-6.336 -4.608,-10.224 z m 52.59,26.928 v -44.28 c 0,-0.864 0.408,-1.56 1.224,-2.088 0.864,-0.528 1.92,-0.792 3.168,-0.792 1.248,0 2.28,0.264 3.096,0.792 0.816,0.528 1.224,1.224 1.224,2.088 v 2.16 c 0.912,-1.536 2.208,-2.832 3.888,-3.888 1.728,-1.056 3.672,-1.584 5.832,-1.584 3.6,0 6.648,1.44 9.144,4.32 2.496,2.832 3.744,6.264 3.744,10.296 v 5.904 c 0,3.888 -1.272,7.32 -3.816,10.296 -2.544,2.976 -5.472,4.464 -8.784,4.464 -2.064,0 -3.984,-0.552 -5.76,-1.656 -1.728,-1.152 -2.952,-2.496 -3.672,-4.032 v 18 c 0,0.768 -0.48,1.44 -1.44,2.016 -0.912,0.624 -2.016,0.936 -3.312,0.936 -1.296,0 -2.376,-0.312 -3.24,-0.936 -0.864,-0.576 -1.296,-1.248 -1.296,-2.016 z m 9.288,-25.776 c 0,0.96 0.648,2.088 1.944,3.384 1.296,1.296 2.76,1.944 4.392,1.944 1.68,0 3.168,-0.672 4.464,-2.016 1.296,-1.392 1.944,-2.928 1.944,-4.608 v -5.904 c 0,-1.68 -0.648,-3.168 -1.944,-4.464 -1.296,-1.344 -2.832,-2.016 -4.608,-2.016 -1.632,0 -3.072,0.6 -4.32,1.8 -1.248,1.2 -1.872,2.76 -1.872,4.68 z m 41.08,-1.296 v -6.12 c 0,-3.936 1.536,-7.32 4.608,-10.152 3.072,-2.832 6.792,-4.248 11.16,-4.248 4.08,0 7.56,1.296 10.44,3.888 2.928,2.544 4.392,5.76 4.392,9.648 0,1.44 -0.192,2.64 -0.576,3.6 -0.336,0.912 -0.888,1.56 -1.656,1.944 -0.72,0.384 -1.392,0.624 -2.016,0.72 -0.624,0.096 -1.44,0.144 -2.448,0.144 h -14.616 v 1.08 c 0,2.064 0.768,3.744 2.304,5.04 1.536,1.248 3.576,1.872 6.12,1.872 1.824,0 3.624,-0.456 5.4,-1.368 1.776,-0.912 2.928,-1.368 3.456,-1.368 1.008,0 1.848,0.48 2.52,1.44 0.672,0.912 1.008,1.8 1.008,2.664 0,1.344 -1.224,2.688 -3.672,4.032 -2.4,1.296 -5.4,1.944 -9,1.944 -5.136,0 -9.336,-1.344 -12.6,-4.032 -3.216,-2.736 -4.824,-6.312 -4.824,-10.728 z m 9.288,-6.048 h 10.512 c 0.768,0 1.296,-0.12 1.584,-0.36 0.336,-0.288 0.504,-0.816 0.504,-1.584 0,-1.68 -0.624,-3.048 -1.872,-4.104 -1.2,-1.056 -2.688,-1.584 -4.464,-1.584 -1.68,0 -3.144,0.528 -4.392,1.584 -1.248,1.008 -1.872,2.352 -1.872,4.032 z m 41.282,17.208 V 213.43 c 0,-0.864 0.408,-1.56 1.224,-2.088 0.864,-0.528 1.968,-0.792 3.312,-0.792 1.2,0 2.184,0.264 2.952,0.792 0.816,0.528 1.224,1.224 1.224,2.088 v 2.952 c 0.768,-1.68 1.968,-3.144 3.6,-4.392 1.632,-1.248 3.384,-1.872 5.256,-1.872 h 2.232 c 0.864,0 1.632,0.408 2.304,1.224 0.72,0.816 1.08,1.752 1.08,2.808 0,1.104 -0.36,2.064 -1.08,2.88 -0.672,0.816 -1.44,1.224 -2.304,1.224 h -2.232 c -2.208,0 -4.152,0.984 -5.832,2.952 -1.632,1.968 -2.448,4.536 -2.448,7.704 v 12.888 c 0,0.72 -0.48,1.392 -1.44,2.016 -0.96,0.624 -2.064,0.936 -3.312,0.936 -1.296,0 -2.376,-0.288 -3.24,-0.864 -0.864,-0.624 -1.296,-1.32 -1.296,-2.088 z m 39.526,-5.976 c 0,-3.888 1.44,-6.624 4.32,-8.208 2.88,-1.584 7.032,-2.376 12.456,-2.376 h 2.952 v -0.936 c 0,-1.776 -0.528,-3.312 -1.584,-4.608 -1.008,-1.344 -2.592,-2.016 -4.752,-2.016 -2.16,0 -4.008,0.384 -5.544,1.152 -1.536,0.72 -2.424,1.08 -2.664,1.08 -0.96,0 -1.728,-0.48 -2.304,-1.44 -0.576,-0.96 -0.864,-2.016 -0.864,-3.168 0,-1.392 1.224,-2.592 3.672,-3.6 2.496,-1.056 5.112,-1.584 7.848,-1.584 5.232,0 9.12,1.344 11.664,4.032 2.544,2.64 3.816,5.976 3.816,10.008 v 17.64 c 0,0.816 -0.432,1.512 -1.296,2.088 -0.864,0.576 -1.944,0.864 -3.24,0.864 -1.2,0 -2.208,-0.288 -3.024,-0.864 -0.768,-0.576 -1.152,-1.272 -1.152,-2.088 v -2.088 c -3.312,3.792 -6.96,5.688 -10.944,5.688 -2.736,0 -4.992,-0.816 -6.768,-2.448 -1.728,-1.632 -2.592,-4.008 -2.592,-7.128 z m 9.288,-1.224 c 0,1.296 0.336,2.28 1.008,2.952 0.72,0.624 1.656,0.936 2.808,0.936 1.536,0 3.024,-0.72 4.464,-2.16 1.44,-1.44 2.16,-3.024 2.16,-4.752 v -1.512 h -1.08 c -2.928,0 -5.232,0.312 -6.912,0.936 -1.632,0.576 -2.448,1.776 -2.448,3.6 z m 41.018,7.2 V 213.43 c 0,-0.864 0.408,-1.56 1.224,-2.088 0.864,-0.528 1.968,-0.792 3.312,-0.792 1.2,0 2.184,0.264 2.952,0.792 0.816,0.528 1.224,1.224 1.224,2.088 v 2.952 c 0.768,-1.68 1.968,-3.144 3.6,-4.392 1.632,-1.248 3.384,-1.872 5.256,-1.872 h 2.232 c 0.864,0 1.632,0.408 2.304,1.224 0.72,0.816 1.08,1.752 1.08,2.808 0,1.104 -0.36,2.064 -1.08,2.88 -0.672,0.816 -1.44,1.224 -2.304,1.224 h -2.232 c -2.208,0 -4.152,0.984 -5.832,2.952 -1.632,1.968 -2.448,4.536 -2.448,7.704 v 12.888 c 0,0.72 -0.48,1.392 -1.44,2.016 -0.96,0.624 -2.064,0.936 -3.312,0.936 -1.296,0 -2.376,-0.288 -3.24,-0.864 -0.864,-0.624 -1.296,-1.32 -1.296,-2.088 z m 39.686,-11.16 v -5.76 c 0,-4.416 1.296,-7.968 3.888,-10.656 2.592,-2.736 6.48,-4.104 11.664,-4.104 3.264,0 6,0.576 8.208,1.728 2.208,1.152 3.312,2.448 3.312,3.888 0,1.008 -0.36,2.016 -1.08,3.024 -0.72,1.008 -1.584,1.512 -2.592,1.512 -0.288,0 -1.152,-0.336 -2.592,-1.008 -1.392,-0.672 -2.904,-1.008 -4.536,-1.008 -4.656,0 -6.984,2.208 -6.984,6.624 v 5.76 c 0,4.416 2.352,6.624 7.056,6.624 1.632,0 3.144,-0.36 4.536,-1.08 1.392,-0.72 2.28,-1.08 2.664,-1.08 1.152,0 2.088,0.48 2.808,1.44 0.768,0.96 1.152,1.944 1.152,2.952 0,1.488 -1.176,2.856 -3.528,4.104 -2.304,1.2 -5.088,1.8 -8.352,1.8 -5.232,0 -9.144,-1.344 -11.736,-4.032 -2.592,-2.688 -3.888,-6.264 -3.888,-10.728 z m 44.754,5.184 c 0,-3.888 1.44,-6.624 4.32,-8.208 2.88,-1.584 7.032,-2.376 12.456,-2.376 h 2.952 v -0.936 c 0,-1.776 -0.528,-3.312 -1.584,-4.608 -1.008,-1.344 -2.592,-2.016 -4.752,-2.016 -2.16,0 -4.008,0.384 -5.544,1.152 -1.536,0.72 -2.424,1.08 -2.664,1.08 -0.96,0 -1.728,-0.48 -2.304,-1.44 -0.576,-0.96 -0.864,-2.016 -0.864,-3.168 0,-1.392 1.224,-2.592 3.672,-3.6 2.496,-1.056 5.112,-1.584 7.848,-1.584 5.232,0 9.12,1.344 11.664,4.032 2.544,2.64 3.816,5.976 3.816,10.008 v 17.64 c 0,0.816 -0.432,1.512 -1.296,2.088 -0.864,0.576 -1.944,0.864 -3.24,0.864 -1.2,0 -2.208,-0.288 -3.024,-0.864 -0.768,-0.576 -1.152,-1.272 -1.152,-2.088 v -2.088 c -3.312,3.792 -6.96,5.688 -10.944,5.688 -2.736,0 -4.992,-0.816 -6.768,-2.448 -1.728,-1.632 -2.592,-4.008 -2.592,-7.128 z m 9.288,-1.224 c 0,1.296 0.336,2.28 1.008,2.952 0.72,0.624 1.656,0.936 2.808,0.936 1.536,0 3.024,-0.72 4.464,-2.16 1.44,-1.44 2.16,-3.024 2.16,-4.752 v -1.512 h -1.08 c -2.928,0 -5.232,0.312 -6.912,0.936 -1.632,0.576 -2.448,1.776 -2.448,3.6 z m 39.796,-3.96 v -5.904 c 0,-3.984 1.248,-7.416 3.744,-10.296 2.544,-2.88 5.568,-4.32 9.072,-4.32 2.112,0 3.96,0.528 5.544,1.584 1.632,1.056 2.88,2.352 3.744,3.888 v -22.104 c 0,-0.864 0.432,-1.56 1.296,-2.088 0.912,-0.528 2.04,-0.792 3.384,-0.792 1.344,0 2.448,0.264 3.312,0.792 0.864,0.528 1.296,1.224 1.296,2.088 v 48.312 c 0,0.768 -0.456,1.464 -1.368,2.088 -0.864,0.576 -1.944,0.864 -3.24,0.864 -1.104,0 -2.088,-0.312 -2.952,-0.936 -0.816,-0.624 -1.224,-1.296 -1.224,-2.016 v -2.088 c -0.768,1.536 -2.088,2.88 -3.96,4.032 -1.824,1.104 -3.84,1.656 -6.048,1.656 -3.312,0 -6.24,-1.488 -8.784,-4.464 -2.544,-2.976 -3.816,-6.408 -3.816,-10.296 z m 9.288,0 c 0,1.68 0.624,3.216 1.872,4.608 1.248,1.344 2.712,2.016 4.392,2.016 1.68,0 3.192,-0.648 4.536,-1.944 1.344,-1.344 2.016,-2.472 2.016,-3.384 v -7.2 c 0,-1.92 -0.672,-3.48 -2.016,-4.68 -1.296,-1.2 -2.784,-1.8 -4.464,-1.8 -1.728,0 -3.216,0.672 -4.464,2.016 -1.248,1.296 -1.872,2.784 -1.872,4.464 z m 42.446,0 v -6.12 c 0,-3.936 1.536,-7.32 4.608,-10.152 3.072,-2.832 6.792,-4.248 11.16,-4.248 4.08,0 7.56,1.296 10.44,3.888 2.928,2.544 4.392,5.76 4.392,9.648 0,1.44 -0.192,2.64 -0.576,3.6 -0.336,0.912 -0.888,1.56 -1.656,1.944 -0.72,0.384 -1.392,0.624 -2.016,0.72 -0.624,0.096 -1.44,0.144 -2.448,0.144 h -14.616 v 1.08 c 0,2.064 0.768,3.744 2.304,5.04 1.536,1.248 3.576,1.872 6.12,1.872 1.824,0 3.624,-0.456 5.4,-1.368 1.776,-0.912 2.928,-1.368 3.456,-1.368 1.008,0 1.848,0.48 2.52,1.44 0.672,0.912 1.008,1.8 1.008,2.664 0,1.344 -1.224,2.688 -3.672,4.032 -2.4,1.296 -5.4,1.944 -9,1.944 -5.136,0 -9.336,-1.344 -12.6,-4.032 -3.216,-2.736 -4.824,-6.312 -4.824,-10.728 z m 9.288,-6.048 h 10.512 c 0.768,0 1.296,-0.12 1.584,-0.36 0.336,-0.288 0.504,-0.816 0.504,-1.584 0,-1.68 -0.624,-3.048 -1.872,-4.104 -1.2,-1.056 -2.688,-1.584 -4.464,-1.584 -1.68,0 -3.144,0.528 -4.392,1.584 -1.248,1.008 -1.872,2.352 -1.872,4.032 z"
     id="path4"
     inkscape:connector-curvature="0"
     style="fill:#ffffff;stroke-width:2" />
</svg>
