<svg xmlns="http://www.w3.org/2000/svg" width="837.75" height="260.662" fill="none"><path d="M15.938 165.374c-1.25 0-3.188-.186-5.813-.562-2-2.124-3.813-5-5.438-8.624a71.936 71.936 0 0 1-3.562-11.813A72.19 72.19 0 0 1 0 131.812c.125-4.25.875-8 2.25-11.25 0-.124.563-1.624 1.688-4.5 1.25-2.874 2.812-6.5 4.687-10.874A763 763 0 0 1 15 90.375c2.375-5.5 4.75-10.875 7.125-16.125s4.625-10 6.75-14.25c2.25-4.375 4.188-7.75 5.813-10.125a76.178 76.178 0 0 0 3-5.063c1-1.624 1.937-3.124 2.812-4.5a911.994 911.994 0 0 0 3.75-6.187c1.25-2 2.563-3.75 3.938-5.25 1.5-1.625 3.124-3 4.874-4.125 1.75-1.25 3.876-2.312 6.376-3.188 1.5.626 2.812 1.313 3.937 2.063a11.177 11.177 0 0 1 3 2.437l.562 2.626c.25.874.626 1.5 1.126 1.874.624.25 1.124.376 1.5.376 1.624.374 3 .812 4.124 1.312 1.25.375 2.563.625 3.938.75.5.75.937 1.5 1.312 2.25.5.75 1 1.438 1.5 2.062 2.5 3.626 4.563 7.126 6.188 10.5 1.625 3.376 1.625 7.063 0 11.063l.187 2.063c.626.874.938 1.687.938 2.437 0 .75-.125 1.813-.375 3.187-.125 1-.25 2.126-.375 3.376 0 1.124.188 2.374.563 3.75l1.312 1.5c2 1 3.937 1.5 5.812 1.5 2.5 0 4.75-.563 6.75-1.688s3.876-2.25 5.626-3.375c1.374-1 2.624-1.813 3.75-2.437 1.25-.626 2.437-1.063 3.562-1.313 2.625-2.5 5-4.687 7.125-6.563 2.25-2 4.563-4 6.938-6 4.5-3.624 8.875-7.5 13.125-11.624 4.25-4.25 7.625-9.5 10.125-15.75 1.375-.876 2.937-1.313 4.687-1.313 1.75 0 3.5.375 5.25 1.125 1.75.625 3.5 1.375 5.25 2.25.375.25.687.438.937.562.375.126.75.313 1.125.563 0 1.375.563 2.625 1.688 3.75.625.5 1.062.813 1.312.937l.75.376c1 .624 1.813 1.187 2.438 1.687.75.5 1.312 1.187 1.687 2.063 1.125 3.374 3 6 5.625 7.874a9.224 9.224 0 0 0 .188 4.126c.375 1.25.812 2.5 1.312 3.75.25.5.438 1 .563 1.5.125.374.313.874.563 1.5l-4.125-.376.562 4.126c.375 2.124.188 4.5-.562 7.124-.625 2.626-1.375 4.688-2.25 6.188.25 3.75.375 6.75.375 9 0 2.125-.125 4.125-.375 6a26.542 26.542 0 0 1-1.313 5.438c-.5 1.624-1.188 3.374-2.063 5.25.5 9.5-.625 18.187-3.375 26.062-2.625 7.875-5.5 15.25-8.625 22.126-.375.874-.75 1.686-1.125 2.436s-.687 1.5-.937 2.25a26.34 26.34 0 0 0-3.75 1.314 25.806 25.806 0 0 0-3.187 1.686 33.295 33.295 0 0 1-4.125 2.25c-1.375.5-2.813.75-4.313.75-6-4.374-9.125-11.937-9.375-22.687-.125-10.75 2.188-24.437 6.938-41.063.875-.624 1.25-1.562 1.125-2.812v-2.062l-1.875-.188a6.96 6.96 0 0 0-1.688.188c-.5.124-.875.687-1.125 1.687-4 2.875-8.375 5.875-13.125 9-4.625 3-9.437 5.813-14.437 8.437-5 2.5-10.126 4.626-15.376 6.376-5.124 1.624-10.124 2.437-15 2.437-12.5 0-21.937-6.375-28.312-19.125l-1.688-3.375-1.874 3C49.687 100.75 49 102 48 103.875c-.875 1.75-1.812 3.813-2.812 6.187a125.331 125.331 0 0 0-2.438 7.313c-.625 2.5-.812 4.687-.562 6.563a54.16 54.16 0 0 0-4.5 4.687c-1.376 1.75-2.376 3.75-3 6a3.24 3.24 0 0 0-.188 1.875c.125.5.313 1.062.563 1.688-.126.874-.376 1.5-.75 1.874-.376.376-.813.75-1.313 1.126a30.747 30.747 0 0 0-1.875 2.062 10.589 10.589 0 0 0-1.687 2.25c-.25.75-.438 1.562-.563 2.438-.125.75-.25 1.436-.375 2.062 0 1.374-.187 2.312-.562 2.812-1.25 2.626-2.375 4.814-3.375 6.562-.875 1.626-1.75 2.876-2.625 3.752-.875.874-1.813 1.436-2.813 1.686-.875.376-1.937.562-3.187.562zM264 163.126c-2 .124-4.5.062-7.5-.188-2.876-.25-5.562.188-8.062 1.312-6.627-.25-13.377-1.062-20.253-2.438-6.874-1.374-13.186-3.062-18.936-5.062a53.033 53.033 0 0 0-3.75-3.75c-1.25-1.25-2.938-2.126-5.062-2.626a28.582 28.582 0 0 1-7.313-8.624 57.053 57.053 0 0 1-4.5-11.062 63.587 63.587 0 0 1-2.25-11.813c-.375-4.125-.5-8.063-.375-11.813 1.875-5.624 4.5-10.437 7.875-14.437 3.5-4.125 7.063-8.187 10.687-12.187 1.624-.75 2.812-1.5 3.562-2.25a20.973 20.973 0 0 1 2.626-2.25c1-.75 1.936-1.438 2.812-2.063 1-.75 1.876-1.625 2.624-2.625 2.626-.625 4.876-1.5 6.752-2.625 2-1.25 3.936-2.5 5.812-3.75a57.337 57.337 0 0 1 5.812-3.75c2-1.125 4.312-2 6.938-2.625 1-1.125 2.186-2 3.562-2.625a64.024 64.024 0 0 1 4.124-2.063c1.5-.75 2.876-1.5 4.126-2.25 1.374-.75 2.438-1.75 3.188-3 .624 1 1.5 1.376 2.624 1.126a90.793 90.793 0 0 0 3.188-1.126c.626-.124 1.126 0 1.5.376.5.374.938.75 1.312 1.124.376.376.688.626.938.75.376 0 .688-.312.938-.937.624 0 .812.313.562.937-.25.626-.438 1.063-.562 1.313 1-.125 1.812.125 2.438.75.748.5 1.874.813 3.374.937.5.626.626 1.126.374 1.5-.247.25-.373.75-.373 1.5 3.75 1.126 6.126 2.938 7.126 5.438 1 2.375 1.061 4.875.185 7.5-.874 2.625-2.438 5.062-4.686 7.312-2.252 2.25-4.688 3.75-7.314 4.5-6 1.626-11.686 3.438-17.062 5.438-5.25 1.875-9.562 4.688-12.938 8.438-3 .874-5.686 2.062-8.062 3.562-2.25 1.375-4.438 3-6.562 4.875-2 1.75-3.938 3.625-5.814 5.625a118.346 118.346 0 0 1-5.624 5.625c.124 1.75-.188 3.125-.938 4.125a54.91 54.91 0 0 0-1.874 2.812c.25 1.876.688 3.563 1.312 5.063a62.917 62.917 0 0 0 2.062 4.125c8.25 2.5 17 4.062 26.25 4.688 9.376.624 18.75 1 28.126 1.124a26.508 26.508 0 0 0 3 3.563c1.25 1 2.374 2.125 3.374 3.375 1 1.125 1.812 2.438 2.438 3.938.626 1.374.75 3.124.374 5.25a46.822 46.822 0 0 1-5.811 5.25c-2.124 1.5-4.25 3.062-6.374 4.688zm24.374-34.688c.126-.5.188-.876.188-1.126.124-.25-.062-.562-.562-.937-.25-.875-.062-1.437.562-1.687l1.876-.75c.623-7.5 1.873-14.313 3.747-20.438 2-6.25 4.126-12.312 6.376-18.188 2.376-5.874 4.688-11.75 6.938-17.624 2.374-6 4.312-12.5 5.812-19.5 1.626-1.626 2.938-3.563 3.938-5.813 1.124-2.25 2.188-4.5 3.188-6.75a58.512 58.512 0 0 1 3.748-6.75c1.5-2.125 3.5-3.875 6-5.25 1.126.125 2.126.375 3 .75 1 .25 1.938.563 2.814.937.874.376 1.812.688 2.812.938 1 .25 2.062.375 3.188.375.5.625.938 1.375 1.312 2.25.374.75.874 1.437 1.5 2.063l3.374-.563c1.626 1.375 3.064 3.125 4.314 5.25 1.25 2 2.124 4.125 2.624 6.375.5 2.125.438 4.25-.186 6.375-.625 2-2.063 3.563-4.313 4.687.126.75.126 1.313 0 1.688-.124.375-.312.75-.562 1.125-.124.25-.188.563-.188.937 0 .25.25.626.75 1.126-1.374 1.124-2.624 2.562-3.75 4.312a26.49 26.49 0 0 0-2.812 5.25 49.458 49.458 0 0 0-1.876 5.625c-.374 1.875-.624 3.625-.748 5.25 3.624-3.75 7.874-7.25 12.748-10.5 4.876-3.25 9.126-6.313 12.752-9.187 2.874-2 5.374-3.876 7.5-5.626A79.145 79.145 0 0 1 381.187 48a82.603 82.603 0 0 1 6.938-4.5c2.5-1.5 5-3.125 7.5-4.875 1.25-.5 2.188-.625 2.814-.375.748.25 1.436.562 2.062.938.124-.876-.062-1.376-.562-1.5-.5-.25-.688-.876-.564-1.876 2.126-.624 4-1.374 5.626-2.25a71.588 71.588 0 0 1 5.438-2.437 71.442 71.442 0 0 1 3.747 4.5c1.252 1.5 2.938 2.313 5.064 2.437.75 1.626 1.624 2.876 2.624 3.75 1.126.75 2.188 1.5 3.188 2.25a10.055 10.055 0 0 1 2.812 2.813c.75 1 1.188 2.625 1.312 4.875-.5 1-1.123 2.125-1.873 3.375-.626 1.125-1.188 2.563-1.688 4.313-3 2.75-6.062 5.187-9.186 7.312-3 2-6.126 3.938-9.376 5.812a2062.041 2062.041 0 0 1-9.75 5.813c-3.25 2-6.562 4.313-9.938 6.937a12.771 12.771 0 0 1-2.812 3A87.295 87.295 0 0 1 381 90.938a57.035 57.035 0 0 0-3.376 2.437c-1 .875-1.812 1.937-2.438 3.187-.5 0-.936.063-1.312.188-.374 0-.812.062-1.312.188-.5 1-1.25 1.812-2.25 2.437a5.159 5.159 0 0 0-1.874 2.437c2.248 4.876 5.186 8.563 8.812 11.063 3.624 2.5 7.688 4.313 12.188 5.437 4.5 1.126 9.374 1.75 14.624 1.876 5.25.124 10.688.187 16.312.187.626-.125.876-.437.75-.937 0-.626.376-.876 1.126-.75 1.874.624 3.436 1.374 4.688 2.25a38.456 38.456 0 0 1 6.748 6c1.126 1 2.376 2.062 3.752 3.187-.252 5.875-2 10.687-5.252 14.437-3.124 3.626-7.312 6.564-12.562 8.812-7.25.252-13.562.064-18.938-.562-5.374-.624-10.686-2-15.936-4.124-.376-.126-.75-.5-1.126-1.126-.25-.624-.5-1.062-.75-1.312-1-.625-2.124-.875-3.374-.75s-2.314 0-3.188-.375c-1.126-.5-3-1.625-5.626-3.375-2.5-1.75-4.812-3.375-6.936-4.875a1765.877 1765.877 0 0 0-7.688-6.187 47.714 47.714 0 0 1-6.376-6.938c-.374-.625-.936-.938-1.686-.938-.626 0-1.25-.187-1.876-.562-4.374 2.75-8.062 6.188-11.062 10.312-2.876 4-5.688 8.126-8.438 12.376a137.926 137.926 0 0 1-8.812 11.812c-3 3.624-6.812 6.438-11.438 8.438-1.374 0-2.562-.25-3.562-.75A9.37 9.37 0 0 1 300 162.75c-.876-.624-1.75-1.25-2.626-1.876-.874-.624-1.874-1.062-3-1.312 0-1.75-.374-3.374-1.124-4.874-.626-1.626-1.312-3.062-2.064-4.314a31.525 31.525 0 0 1-1.5-3.936c-.248-1.25.126-2.5 1.126-3.75-1.374-1.126-2.688-2.063-3.938-2.813.876-.875 1.25-1.687 1.126-2.437 0-.75-.188-1.5-.562-2.25a17.05 17.05 0 0 1-.938-2.25c-.126-.876.124-1.813.75-2.813.5-.125.688-.375.562-.75 0-.375.188-.687.562-.937zm205.312-14.813c-.874.75-1.624 1.687-2.248 2.813a69.99 69.99 0 0 0-1.876 3.187 38.853 38.853 0 0 1-2.062 3.937 14.423 14.423 0 0 1-2.814 3.376c-.624 1.874-1.248 3.374-1.874 4.5-.626 1-1.626 2.187-3 3.562-1.25 5-4.188 10.438-8.812 16.312-.126 1.126-.5 2.25-1.126 3.376-.5 1-1.062 2-1.688 3-.248.374-.5.812-.748 1.312a8.942 8.942 0 0 0-.564.938l-.374 1.874c-.626 1-1.314 1.876-2.062 2.626-.753.75-1.439 1.436-2.065 2.062-.25.374-.688.874-1.312 1.5l-2.812 1.126c-9.126-1.252-14.688-6.126-16.688-14.626l.188-1.874c.25-.626.436-1.252.562-1.876l.75-2.25c.5-1.75 1.062-3.5 1.688-5.25a14.843 14.843 0 0 1 3.188-4.688c.248-.874.812-2.25 1.686-4.124.876-2 2.376-4.938 4.5-8.813 1.75-3 3.126-5.375 4.126-7.125 1-1.75 1.812-3.125 2.436-4.125a26.58 26.58 0 0 0-4.5-5.437 144.83 144.83 0 0 1-4.312-9c-1.124-2.876-2-5.438-2.624-7.688-.126-1.625-.312-3-.564-4.125-.248-1.125-.5-2.313-.748-3.563a48.569 48.569 0 0 1-.938-4.124 24.076 24.076 0 0 1-.376-4.313c-.624-.875-1-1.75-1.124-2.625l.374-1.875c.376-.875.438-2 .188-3.375-.25-1.5-.562-3-.938-4.5a88.272 88.272 0 0 0-.938-4.125c-.248-1.5-.312-3-.186-4.5.124-1.5.5-2.875 1.124-4.125.75-1.375 1.938-2.562 3.562-3.562l3.188-.188a71.36 71.36 0 0 1 3.188 1.875c1.124.5 2.188 1.063 3.188 1.687 1.374.626 2.688 1.25 3.936 1.876 1.252.624 2.564 1.437 3.938 2.437l1.314 2.625 2.436 2.062v2.063c.126.5.188 1.187.188 2.063 0 1.624.25 2.624.75 3l.75 2.25c0 1.75.188 3.437.562 5.062.376 1.5.75 2.938 1.126 4.312.374 1.376.75 2.813 1.124 4.313.376 1.5.438 3.125.188 4.875.75-.375 1.376-.812 1.876-1.312.248-.25.5-.438.748-.563.252-.125.5-.313.752-.563l11.062-15-.376-1.874 3.938-3.75 2.812-2.813c1-.875 1.812-1.813 2.438-2.813l2.062-1.5c4-6.25 9.688-10.124 17.064-11.624l2.624-.376.75 2.438c.5 1.375 1.5 2.625 3 3.75a69.441 69.441 0 0 0 5.062 3.188l1.688 1.124c.624 1.25.938 2.188.938 2.813a6.92 6.92 0 0 1-.188 1.687l.75 1.876c-1 3-2.25 5.187-3.75 6.562a55.613 55.613 0 0 1-4.126 3.75c-1.124 1-2.186 1.938-3.186 2.812-.876.75-1.562 1.75-2.062 3l-1.314 1.5c-2.624 1.5-4.312 3.5-5.062 6l-.562 2.25h-2.25c-.126 0-.438.25-.938.75-.374.376-1 1.438-1.874 3.188-.876 1.25-1.5 2.062-1.876 2.438-.376.374-.688.687-.938.937-.124.5-.312 1-.562 1.5-.124.375-.312.875-.562 1.5-1.626 1.625-2.626 2.875-3 3.75L498.186 105l-1.5 3c-.374.875-1.062 1.812-2.062 2.812zm66.376 47.063c-3.5 1.124-7.312 2.25-11.438 3.374-4.124 1.126-8.25 1.688-12.374 1.688-6.25 0-11.188-1.562-14.812-4.688-.626-1.374-1.188-2.312-1.688-2.812l-1.126-1.5c-.25-.624-.438-1.438-.562-2.438-1.5-1.75-2.688-3.75-3.562-6a37.506 37.506 0 0 1-1.876-7.124c-.25-2.5-.312-5-.186-7.5a42.02 42.02 0 0 1 1.312-7.126c.25-.5.374-1 .374-1.5.126-.5.25-1.062.376-1.687.5-2 1-3.937 1.5-5.813.624-1.874 1.438-3.5 2.438-4.874-.5-1.126-.5-2.376 0-3.75a26.129 26.129 0 0 1 1.686-3.75c1.75-4.75 3.188-8.75 4.314-12 1.248-3.376 2.5-6.688 3.748-9.938a537.99 537.99 0 0 0 6-16.688c1.876-5.5 3.564-11.437 5.064-17.812 1-.625 1.75-1.062 2.25-1.312.75-.25 1.374-.438 1.874-.563 2.25 1.125 4.876 2.25 7.876 3.375 3 1 5.5 1.5 7.5 1.5 1 .625 1.624 1.125 1.874 1.5l.75.75a33.74 33.74 0 0 1 3.564 5.062c1 1.626 1.312 3.813.936 6.563-.75 1.125-1.312 1.687-1.688 1.687-.624 2.5-1.312 4.626-2.062 6.376a90.443 90.443 0 0 1-2.062 5.25 108.379 108.379 0 0 0-2.438 5.624c-.75 1.876-1.374 4.188-1.874 6.938-.5.625-.876 1.188-1.126 1.688-.124.5-.312 1.062-.562 1.687-.25.625-.562 1.313-.938 2.063-.25.624-.686 1.187-1.312 1.687-.374 3.25-1 5.875-1.874 7.875-.752 2-1.564 4-2.438 6a192.97 192.97 0 0 0-4.126 10.875c-1.124 3.625-1.812 7.75-2.062 12.375.626-.25 1.188-.375 1.688-.375h1.686c1.126 0 2.438.187 3.938.563 3.75-2 7.814-3.188 12.188-3.563 4.5-.375 8.938-.625 13.312-.75h5.25c1.75 0 3.376-.125 4.876-.375 1.124.625 1.812 1 2.062 1.125h1.5c.874 0 1.626.063 2.25.187 1.5 1.376 2.938 2.376 4.312 3a44.202 44.202 0 0 0 4.312 1.688c1.376.5 2.688 1.062 3.938 1.688 1.376.5 2.688 1.25 3.938 2.25l1.312 8.062c.876 1.124 1.25 1.876 1.126 2.25 0 1-.25 1.75-.75 2.25l.374 2.062c-1.874.376-3.186.814-3.938 1.314-.624.5-1.248 1.062-1.874 1.686-1 .126-1.75.188-2.25.188h-1.124c-1.752 0-3.876.312-6.376.938a32.967 32.967 0 0 0-10.5-1.688c-1.376 0-2.812.062-4.312.188l-4.5.374c-1.5.25-3.064.438-4.688.562-1.5.126-3.062.188-4.688.188zM712.125 147c-.75 2.126-1.874 4.312-3.374 6.562-1.376 2.126-3.064 4.064-5.064 5.812-1.874 1.626-4 3-6.374 4.126a19.474 19.474 0 0 1-7.5 1.874c-1.626-.374-2.75-.812-3.374-1.312-.5-.374-1.064-.75-1.688-1.124a4.784 4.784 0 0 0-1.126-.564c-.25-.248-.5-.436-.75-.562l-2.25-.938.75-2.436c.25-1 .188-1.75-.188-2.25-.374-.626-1.124-1.438-2.248-2.438l-1.126-1.124a7.621 7.621 0 0 1-.938-1.126l-3.188-3.562 5.064-1.313c3.124-.875 5.188-2 6.188-3.375 1.124-1.375 1.562-3.688 1.312-6.938-2.5-.5-4.626-.562-6.376-.187-1.624.375-3.312.813-5.062 1.313-2.25.624-4.562 1.187-6.938 1.687-2.25.375-4.75.563-7.5.563h-2.812c-.876-.126-1.812-.25-2.812-.376l-1.876-.374c-.25-1.376-.5-2.126-.75-2.25l-.75-.75c-.624-.626-1.312-1.438-2.062-2.438-.626-1.125-.75-2.5-.374-4.125-.626-1.125-1-2.25-1.126-3.375a21.059 21.059 0 0 0-1.688 4.688l-.75 1.874-1.874.376c-.25.124-.438.437-.562.937-.126.375-.188.687-.188.937l-.938 3.188-.75.75c-.25.125-.5.312-.75.562a33.717 33.717 0 0 1-.938 3.376 91.686 91.686 0 0 1-1.124 3.187 74.736 74.736 0 0 0-1.688 4.875c-.376 1.5-.5 3-.376 4.5l-.748 2.062a9.708 9.708 0 0 1-2.064 1.876l-2.25 1.124c-.25.25-.624.5-1.124.75-.376.126-.688.25-.938.376l-.562 2.062-2.25.374c-1.376.252-2.376.438-3 .564-.5.124-1.126.188-1.876.188l-1.874-.188c-1.376-1.126-2.438-2-3.188-2.626a14.696 14.696 0 0 0-2.626-2.062c-1.124-1.5-1.748-2.624-1.874-3.376a73.783 73.783 0 0 0-.374-2.062c-.252-.75-.376-1.374-.376-1.874-.124-.5-.312-.876-.562-1.126l-2.438-2.25 2.062-1.687.188-3.187c2.5-6.376 5.126-12.5 7.874-18.376l8.814-18c1-2 1.938-4 2.812-6l3-6c-.126-.374-.188-.812-.188-1.312s.126-1.062.376-1.688c1.374-2.124 2.5-4 3.374-5.624l2.626-5.25c1-2.126 2-4.188 3-6.188 1.124-2 2.5-4.062 4.124-6.188l3-1.312c.376-.125.814-.25 1.314-.375.5-.25 1.062-.375 1.686-.375l2.814.375a28.67 28.67 0 0 0 9.186-6.75c2.626-3 5.314-6.563 8.062-10.687l1.876-2.626 2.438 1.5c.624.376 1.5.75 2.624 1.126 1.126.25 2.314.562 3.562.937 2.252.5 4.376 1.063 6.376 1.687 2 .626 3.624 1.563 4.876 2.813.748 2 1.186 3.5 1.312 4.5.124 1 .312 2 .562 3 .374 2.125.688 4.25.938 6.375.374 2.125.624 4.5.75 7.125a59.266 59.266 0 0 1 1.5 6.375c.5 2 .938 4.062 1.312 6.188.626 3 1.25 5.937 1.874 8.812a52.608 52.608 0 0 0 2.438 7.875c1 0 1.626.063 1.876.187.624-.25 1.25-.437 1.874-.562.75-.125 1.564-.25 2.438-.375l2.062-.187.75 1.874c.126.626.75 1.25 1.876 1.876 1.624.124 2.812.5 3.562 1.124.75.5 1.438 1.063 2.062 1.688.5.5 1 .875 1.5 1.125l2.814 1.125-1.5 2.812c-1.252 2.25-3.064 4.438-5.438 6.563-2.25 2-4.814 3.687-7.688 5.063.126.75.188 1.5.188 2.25.124.624.312 1.312.562 2.062.376 2.125.688 4.312.938 6.562s.25 4.563 0 6.938zm-54.186-32.438c3.748-.25 7.124-.5 10.124-.75 3.124-.374 6.562-.937 10.312-1.687a748.46 748.46 0 0 0-2.812-11.625c-1-4.125-2.062-8.188-3.188-12.188l-1.124 1.876c-2.5 2.624-4.938 5.562-7.312 8.812-2.252 3.25-4.188 6.312-5.814 9.188l-2.25 3.374a49.293 49.293 0 0 0-2.062 3.376c.75-.126 1.438-.188 2.062-.188.75 0 1.438-.062 2.064-.188zM729 15.188l.186 2.062c-.874 1.5-1.624 2.75-2.248 3.75-.5 1-.876 2.062-1.126 3.188-1.374 1.374-2.438 2.25-3.188 2.624-.75.25-1.438.5-2.062.75-1.376.5-2.312 1-2.812 1.5l-1.876 2.813L714 30.188l-2.814 2.624a362.372 362.372 0 0 0-3-2.437c-.624-.625-1.248-1.125-1.874-1.5-.5-.375-1.25-.75-2.25-1.125-.876-.5-2.312-1.188-4.312-2.062l-2.626-.938.75-2.438c.25-.624.312-1.75.188-3.374 0-1.626.062-3 .188-4.126.124-2 .124-3.874 0-5.624-.126-1.75.188-3.313.936-4.688 2.626-1.375 4.688-2.313 6.188-2.812 1.25.124 2.438.25 3.564.374l3.374.376c.874.124 1.438.25 1.688.374h.938c.248-.124.748-.312 1.5-.562l2.248.375c.876.375 1.564.937 2.064 1.687l1.874 1.876c.5 1 1 1.624 1.5 1.874l2.25.188.75 2.25c.626 1.25 1 2.187 1.126 2.812.25.5.5 1.126.75 1.876zm-56.063-7.313A63.654 63.654 0 0 0 677.063 12c1.376 1.25 2.188 2.625 2.438 4.125-.5 2-.938 3.375-1.314 4.125-.248.75-.562 1.562-.936 2.438-1.626 1.374-3.5 2.812-5.626 4.312-.75.625-1.25 1-1.5 1.125a2.16 2.16 0 0 0-.562.375l-.188.375c0 .125-.188.563-.562 1.313l-1.874 1.312c-1 .375-1.938.562-2.814.562l-2.624-.374H660c-.5-.126-.876-.188-1.126-.188l-1.5 1.5-2.25-.938c-1.374-.624-2.374-1-3-1.124-.5-.25-1.062-.626-1.686-1.126l-1.688-1.124c-.5-1.876-.938-3.313-1.312-4.313a13.878 13.878 0 0 0-1.126-3.187c0-2.126.126-3.563.374-4.313.252-.75.5-1.437.752-2.063.748-1.374 1.062-2.374.936-3l-.75-3.374 2.814-.188V4.312c1.748-.124 3.062-.187 3.936-.187.876 0 1.688-.063 2.438-.187.75-.25 1.562-.563 2.438-.938 1-.375 2.562-1 4.688-1.875L666.563 0l1.124 2.438c.252.5.938 1.312 2.064 2.437a85.557 85.557 0 0 1 3.188 3zm90 120.75c-1.126.25-1.938.937-2.438 2.063-.5 1-1 2.062-1.5 3.187a24.44 24.44 0 0 1-1.314 3.187c-.374.876-1 1.313-1.874 1.313-.126 1-.5 1.875-1.126 2.625-.5.75-1 1.562-1.5 2.438-.5.75-.874 1.624-1.124 2.624-.25.876-.124 1.938.376 3.188-1 .75-1.626 1.812-1.876 3.188a35.974 35.974 0 0 1-.938 3.936c-.25 1.252-.75 2.314-1.5 3.188-.75.876-2.124 1.25-4.124 1.126-.376.5-.438.812-.188.938.25.124.438.562.562 1.312-1.374-.25-2.436-.188-3.188.188-.624.5-1.436.812-2.436.936a12.946 12.946 0 0 1-6-3.936 44.443 44.443 0 0 1-4.126-6.188 179.678 179.678 0 0 1-3.186-7.126c-.876-2.374-1.752-4.437-2.626-6.187.374-1.375.438-2.687.188-3.937-.25-1.376-.688-2.5-1.314-3.376a2813.99 2813.99 0 0 1 20.064-41.624A1501.447 1501.447 0 0 0 762.375 48a73.594 73.594 0 0 1 8.438 3.938c2.874 1.374 5.438 3 7.688 4.874a27.252 27.252 0 0 1 6 6.563c1.624 2.375 2.686 5.063 3.186 8.063-.248.75-.562 1.062-.936.937-.25-.25-.5-.187-.75.187.5.626.75 1.063.75 1.313.124.25.124.5 0 .75v1.125c0 .375.188.938.562 1.688-.5-.126-.874-.063-1.126.187-.124.25-.5.25-1.124 0 .5 1.375.624 2.5.376 3.375a7.917 7.917 0 0 1-.752 2.438c-.374.624-.686 1.374-.936 2.25-.25.75-.188 1.75.188 3-.376 0-.688.124-.938.374-.126.126-.25.313-.376.563l-.562.563c-.124.124-.376.124-.75 0 .374 2.75.5 5.5.374 8.25-.124 2.75-.248 5.562-.374 8.437 0 2.75.062 5.687.188 8.813.124 3 .562 6.124 1.312 9.374 4.5-2.624 8.062-6 10.688-10.124 2.75-4.126 4.938-8.75 6.562-13.876 1.75-5.124 3.062-10.624 3.938-16.5a1288.71 1288.71 0 0 1 2.812-18c1.126-1.124 2-2.5 2.626-4.124a60.442 60.442 0 0 0 1.686-5.063c.5-1.875 1-3.687 1.5-5.437.5-1.876 1.126-3.563 1.876-5.063 1.874.25 3.438.875 4.686 1.875a21.957 21.957 0 0 1 3.752 3c1.124 1 2.312 2 3.562 3 1.25.875 2.812 1.438 4.686 1.688 1.5 2.124 2.876 4.187 4.126 6.187 1.25 2 2.062 4.125 2.438 6.375-.626 1-1.126 2.125-1.5 3.375-.25 1.25-.564 2.5-.938 3.75a17.797 17.797 0 0 1-1.5 3.563c-.626 1-1.5 1.874-2.626 2.624-.374 3.25-.874 6.25-1.5 9-.5 2.626-1.062 5.25-1.686 7.876a143.71 143.71 0 0 0-1.314 8.25c-.374 2.75-.5 5.812-.374 9.187-1 2.875-2.062 5.937-3.188 9.187-1.124 3.25-2 6.188-2.624 8.813-2 1.625-3.562 3.563-4.688 5.813-1.126 2.25-2.312 4.5-3.562 6.75-.5.5-.812.624-.938.374-.126-.25-.562-.437-1.312-.562.124.5.124.875 0 1.125-.126.25-.314.5-.562.749-.126.126-.252.376-.376.752 0 .374.124.874.376 1.5a14.802 14.802 0 0 0-4.688 3.186 32.526 32.526 0 0 1-4.5 3.75c-1.5 1.126-3.376 1.876-5.626 2.25-2.124.376-4.938-.062-8.438-1.312a74.65 74.65 0 0 1-13.686-12.938c-3.876-4.874-7.062-10.687-9.562-17.437zM163.398 239.206c0-.864.312-1.752.936-2.664.624-.96 1.344-1.44 2.16-1.44.528 0 1.176.264 1.944.792.816.528 1.872 1.08 3.168 1.656 1.296.528 2.832.792 4.608.792 3.504 0 5.256-1.032 5.256-3.096 0-1.152-.6-2.064-1.8-2.736-1.152-.672-2.568-1.224-4.248-1.656a72.63 72.63 0 0 1-4.968-1.512c-1.68-.624-3.12-1.632-4.32-3.024-1.152-1.44-1.728-3.264-1.728-5.472 0-2.928 1.032-5.448 3.096-7.56 2.064-2.112 5.328-3.168 9.792-3.168 2.976 0 5.616.456 7.92 1.368 2.352.912 3.528 2.016 3.528 3.312 0 .816-.336 1.776-1.008 2.88-.624 1.056-1.416 1.584-2.376 1.584-.384 0-1.44-.336-3.168-1.008-1.68-.72-3.264-1.08-4.752-1.08-1.632 0-2.88.336-3.744 1.008-.864.672-1.296 1.416-1.296 2.232 0 .816.432 1.488 1.296 2.016.864.528 1.92.936 3.168 1.224a35.77 35.77 0 0 1 4.176 1.224 24.508 24.508 0 0 1 4.104 1.728c1.296.672 2.376 1.728 3.24 3.168.864 1.392 1.296 3.096 1.296 5.112 0 3.264-1.176 5.832-3.528 7.704-2.304 1.872-5.544 2.808-9.72 2.808-3.6 0-6.672-.624-9.216-1.872-2.544-1.248-3.816-2.688-3.816-4.32zm45.797-8.424v-17.28c0-.72.456-1.392 1.368-2.016.96-.624 2.064-.936 3.312-.936 1.2 0 2.256.312 3.168.936.96.624 1.44 1.296 1.44 2.016v17.28c0 1.68.624 3.192 1.872 4.536 1.248 1.296 2.736 1.944 4.464 1.944 1.728 0 3.192-.648 4.392-1.944 1.248-1.344 1.872-2.856 1.872-4.536V213.43c0-.768.456-1.44 1.368-2.016.96-.576 2.064-.864 3.312-.864 1.344 0 2.448.288 3.312.864.864.576 1.296 1.248 1.296 2.016v17.352c0 3.888-1.536 7.296-4.608 10.224-3.072 2.928-6.72 4.392-10.944 4.392-4.224 0-7.896-1.464-11.016-4.392-3.072-2.928-4.608-6.336-4.608-10.224zm52.59 26.928v-44.28c0-.864.407-1.56 1.223-2.088.864-.528 1.92-.792 3.168-.792 1.248 0 2.28.264 3.096.792.816.528 1.224 1.224 1.224 2.088v2.16c.912-1.536 2.208-2.832 3.888-3.888 1.728-1.056 3.672-1.584 5.832-1.584 3.6 0 6.648 1.44 9.144 4.32 2.496 2.832 3.744 6.264 3.744 10.296v5.904c0 3.888-1.272 7.32-3.816 10.296-2.544 2.976-5.472 4.464-8.784 4.464-2.064 0-3.984-.552-5.76-1.656-1.728-1.152-2.952-2.496-3.672-4.032v18c0 .768-.48 1.44-1.44 2.016-.912.624-2.016.936-3.312.936-1.296 0-2.376-.312-3.24-.936-.864-.576-1.296-1.248-1.296-2.016zm9.287-25.776c0 .96.648 2.088 1.944 3.384 1.296 1.296 2.76 1.944 4.392 1.944 1.68 0 3.168-.672 4.464-2.016 1.296-1.392 1.944-2.928 1.944-4.608v-5.904c0-1.68-.647-3.168-1.943-4.464-1.296-1.344-2.832-2.016-4.608-2.016-1.632 0-3.072.6-4.32 1.8-1.248 1.2-1.872 2.76-1.872 4.68zm41.08-1.296v-6.12c0-3.936 1.536-7.32 4.608-10.152 3.072-2.832 6.792-4.248 11.16-4.248 4.08 0 7.56 1.296 10.44 3.888 2.928 2.544 4.392 5.76 4.392 9.648 0 1.44-.192 2.64-.576 3.6-.336.912-.888 1.56-1.656 1.944-.72.384-1.392.624-2.016.72-.624.096-1.44.144-2.448.144H321.44v1.08c0 2.064.768 3.744 2.304 5.04 1.536 1.248 3.576 1.872 6.12 1.872 1.824 0 3.624-.456 5.4-1.368 1.776-.912 2.928-1.368 3.456-1.368 1.008 0 1.848.48 2.52 1.44.672.912 1.008 1.8 1.008 2.664 0 1.344-1.224 2.688-3.672 4.032-2.4 1.296-5.4 1.944-9 1.944-5.136 0-9.336-1.344-12.6-4.032-3.216-2.736-4.824-6.312-4.824-10.728zm9.288-6.048h10.512c.768 0 1.296-.12 1.584-.36.336-.288.504-.816.504-1.584 0-1.68-.624-3.048-1.872-4.104-1.2-1.056-2.688-1.584-4.464-1.584-1.68 0-3.144.528-4.392 1.584-1.248 1.008-1.872 2.352-1.872 4.032zm41.282 17.208V213.43c0-.864.408-1.56 1.224-2.088.864-.528 1.968-.792 3.312-.792 1.2 0 2.184.264 2.952.792.816.528 1.224 1.224 1.224 2.088v2.952c.768-1.68 1.968-3.144 3.6-4.392 1.632-1.248 3.384-1.872 5.256-1.872h2.232c.864 0 1.632.408 2.304 1.224.72.816 1.08 1.752 1.08 2.808 0 1.104-.36 2.064-1.08 2.88-.672.816-1.44 1.224-2.304 1.224h-2.232c-2.208 0-4.152.984-5.832 2.952-1.632 1.968-2.448 4.536-2.448 7.704v12.888c0 .72-.48 1.392-1.44 2.016-.96.624-2.064.936-3.312.936-1.296 0-2.376-.288-3.24-.864-.864-.624-1.296-1.32-1.296-2.088zm39.526-5.976c0-3.888 1.44-6.624 4.32-8.208 2.88-1.584 7.032-2.376 12.456-2.376h2.952v-.936c0-1.776-.528-3.312-1.584-4.608-1.008-1.344-2.592-2.016-4.752-2.016-2.16 0-4.008.384-5.544 1.152-1.536.72-2.424 1.08-2.664 1.08-.96 0-1.728-.48-2.304-1.44a6.042 6.042 0 0 1-.863-3.168c0-1.392 1.224-2.592 3.672-3.6a19.94 19.94 0 0 1 7.848-1.584c5.232 0 9.12 1.344 11.664 4.032 2.544 2.64 3.816 5.976 3.816 10.008v17.64c0 .816-.432 1.512-1.296 2.088-.864.576-1.944.864-3.24.864-1.2 0-2.208-.288-3.024-.864-.768-.576-1.152-1.272-1.152-2.088v-2.088c-3.312 3.792-6.96 5.688-10.944 5.688-2.736 0-4.992-.816-6.768-2.448-1.728-1.632-2.592-4.008-2.592-7.128zm9.288-1.224c0 1.296.336 2.28 1.008 2.952.72.624 1.656.936 2.808.936 1.536 0 3.024-.72 4.464-2.16 1.44-1.44 2.16-3.024 2.16-4.752v-1.512h-1.08c-2.928 0-5.232.312-6.912.936-1.631.576-2.447 1.776-2.447 3.6zm41.018 7.2V213.43c0-.864.408-1.56 1.224-2.088.864-.528 1.968-.792 3.312-.792 1.2 0 2.184.264 2.952.792.816.528 1.224 1.224 1.224 2.088v2.952c.768-1.68 1.968-3.144 3.6-4.392 1.632-1.248 3.384-1.872 5.256-1.872h2.232c.864 0 1.632.408 2.304 1.224.72.816 1.08 1.752 1.08 2.808 0 1.104-.36 2.064-1.08 2.88-.672.816-1.44 1.224-2.304 1.224h-2.232c-2.208 0-4.152.984-5.832 2.952-1.632 1.968-2.448 4.536-2.448 7.704v12.888c0 .72-.48 1.392-1.44 2.016-.96.624-2.064.936-3.312.936-1.296 0-2.376-.288-3.24-.864-.864-.624-1.296-1.32-1.296-2.088zm39.686-11.16v-5.76c0-4.416 1.296-7.968 3.888-10.656 2.592-2.736 6.48-4.104 11.664-4.104 3.264 0 6 .576 8.208 1.728 2.208 1.152 3.312 2.448 3.312 3.888 0 1.008-.36 2.016-1.08 3.024-.72 1.008-1.584 1.512-2.592 1.512-.288 0-1.152-.336-2.592-1.008-1.392-.672-2.904-1.008-4.536-1.008-4.656 0-6.984 2.208-6.984 6.624v5.76c0 4.416 2.352 6.624 7.056 6.624 1.632 0 3.144-.36 4.536-1.08 1.392-.72 2.28-1.08 2.664-1.08 1.152 0 2.088.48 2.808 1.44.768.96 1.152 1.944 1.152 2.952 0 1.488-1.176 2.856-3.528 4.104-2.304 1.2-5.088 1.8-8.352 1.8-5.232 0-9.144-1.344-11.736-4.032-2.592-2.688-3.888-6.264-3.888-10.728zm44.754 5.184c0-3.888 1.44-6.624 4.32-8.208 2.88-1.584 7.032-2.376 12.456-2.376h2.952v-.936c0-1.776-.528-3.312-1.584-4.608-1.008-1.344-2.592-2.016-4.752-2.016-2.16 0-4.007.384-5.543 1.152-1.536.72-2.424 1.08-2.664 1.08-.96 0-1.728-.48-2.304-1.44a6.042 6.042 0 0 1-.864-3.168c0-1.392 1.224-2.592 3.672-3.6a19.94 19.94 0 0 1 7.848-1.584c5.232 0 9.12 1.344 11.664 4.032 2.544 2.64 3.816 5.976 3.816 10.008v17.64c0 .816-.432 1.512-1.296 2.088-.864.576-1.944.864-3.24.864-1.2 0-2.208-.288-3.024-.864-.768-.576-1.152-1.272-1.152-2.088v-2.088c-3.312 3.792-6.96 5.688-10.944 5.688-2.736 0-4.992-.816-6.768-2.448-1.728-1.632-2.592-4.008-2.592-7.128zm9.288-1.224c0 1.296.336 2.28 1.008 2.952.72.624 1.656.936 2.808.936 1.536 0 3.024-.72 4.464-2.16 1.44-1.44 2.16-3.024 2.16-4.752v-1.512h-1.08c-2.928 0-5.232.312-6.912.936-1.632.576-2.448 1.776-2.448 3.6zm39.796-3.96v-5.904c0-3.984 1.248-7.416 3.744-10.296 2.544-2.88 5.568-4.32 9.072-4.32 2.112 0 3.96.528 5.544 1.584 1.632 1.056 2.88 2.352 3.744 3.888v-22.104c0-.864.432-1.56 1.296-2.088.913-.528 2.04-.792 3.385-.792 1.344 0 2.448.264 3.312.792.864.528 1.296 1.224 1.296 2.088v48.312c0 .768-.456 1.464-1.368 2.088-.864.576-1.944.864-3.24.864-1.104 0-2.088-.312-2.952-.936-.816-.624-1.224-1.296-1.224-2.016v-2.088c-.768 1.536-2.088 2.88-3.96 4.032-1.824 1.104-3.84 1.656-6.048 1.656-3.312 0-6.24-1.488-8.784-4.464-2.544-2.976-3.816-6.408-3.816-10.296zm9.288 0c0 1.68.624 3.216 1.872 4.608 1.248 1.344 2.712 2.016 4.392 2.016 1.68 0 3.192-.648 4.536-1.944 1.344-1.344 2.016-2.472 2.016-3.384v-7.2c0-1.92-.672-3.48-2.016-4.68-1.296-1.2-2.784-1.8-4.464-1.8-1.728 0-3.216.672-4.464 2.016-1.248 1.296-1.872 2.784-1.872 4.464zm42.446 0v-6.12c0-3.936 1.536-7.32 4.608-10.152 3.072-2.832 6.792-4.248 11.16-4.248 4.08 0 7.56 1.296 10.44 3.888 2.928 2.544 4.392 5.76 4.392 9.648 0 1.44-.192 2.64-.576 3.6-.336.912-.888 1.56-1.656 1.944-.72.384-1.391.624-2.015.72-.624.096-1.44.144-2.448.144H647.1v1.08c0 2.064.768 3.744 2.304 5.04 1.536 1.248 3.576 1.872 6.12 1.872 1.824 0 3.624-.456 5.4-1.368 1.776-.912 2.928-1.368 3.456-1.368 1.008 0 1.848.48 2.52 1.44.672.912 1.008 1.8 1.008 2.664 0 1.344-1.224 2.688-3.672 4.032-2.4 1.296-5.4 1.944-9 1.944-5.136 0-9.336-1.344-12.6-4.032-3.216-2.736-4.824-6.312-4.824-10.728zm9.288-6.048h10.512c.768 0 1.296-.12 1.584-.36.336-.288.504-.816.504-1.584 0-1.68-.624-3.048-1.872-4.104-1.2-1.056-2.688-1.584-4.464-1.584-1.68 0-3.144.528-4.392 1.584-1.248 1.008-1.872 2.352-1.872 4.032z" fill="#fff"/></svg>